<?xml version="1.0" standalone="no"?>
<!DOCTYPE svg PUBLIC "-//W3C//DTD SVG 20010904//EN" "http://www.w3.org/TR/2001/REC-SVG-20010904/DTD/svg10.dtd">
<svg version="1.0" xmlns="http://www.w3.org/2000/svg"
    width="186.000000pt" height="128.000000pt" viewBox="0 0 186.000000 128.000000"
    preserveAspectRatio="xMidYMid meet">

    <g transform="translate(0.000000,128.000000) scale(0.100000,-0.100000)"
        fill="#000000" stroke="none">
        <path
            d="M906 1198 c-262 -423 -364 -555 -653 -848 -124 -125 -145 -143 -154
-127 -6 10 -22 17 -41 17 -29 0 -30 -2 -24 -31 3 -17 6 -53 6 -80 0 -42 3 -49
20 -49 14 0 20 7 20 23 0 15 28 50 83 105 45 45 86 82 90 82 4 0 7 -52 7 -115
l0 -115 232 2 232 3 59 179 c32 99 74 241 93 315 45 176 43 170 53 151 5 -8
23 -73 40 -145 18 -72 60 -213 94 -315 l62 -185 233 -3 232 -2 0 115 c0 63 3
115 8 115 4 0 44 -37 90 -83 53 -54 82 -90 82 -105 0 -13 6 -22 15 -22 12 0
15 13 15 59 0 37 5 61 12 63 6 2 9 12 5 21 -8 22 -53 22 -65 0 -9 -15 -14 -13
-45 13 -41 33 -253 256 -343 359 -127 147 -262 336 -383 538 -29 48 -54 87
-56 87 -3 0 -11 -10 -19 -22z m53 -103 c17 -31 66 -108 107 -172 42 -65 69
-112 61 -104 -21 17 -126 170 -168 245 -38 69 -24 79 -129 -89 -38 -60 -81
-123 -95 -140 -14 -16 8 22 48 85 40 63 88 141 106 173 18 31 34 57 36 57 2 0
17 -25 34 -55z m-89 -447 c-67 -168 -173 -337 -246 -393 -46 -35 -43 -24 10
39 54 63 131 192 211 355 33 67 61 117 63 112 2 -6 -15 -57 -38 -113z m143
-20 c80 -167 129 -248 208 -344 l62 -75 -58 -59 c-73 -74 -87 -70 -17 4 29 30
52 56 52 58 0 2 -30 35 -67 74 -74 76 -130 167 -198 321 -86 192 -73 208 18
21z m-331 -523 c6 -11 -17 7 -51 40 -33 33 -61 64 -61 69 0 13 98 -83 112
-109z" />
    </g>
</svg>