<svg xmlns="http://www.w3.org/2000/svg" version="1.0" preserveAspectRatio="xMidYMid meet" viewBox="16 32 382 48.1">

<g transform="translate(0.000000,114.000000) scale(0.100000,-0.100000)" fill="currentColor" stroke="none">
<path d="M968 738 c-59 -90 -125 -171 -220 -273 -45 -49 -65 -64 -79 -60 -15 5 -19 1 -19 -19 0 -35 10 -33 51 10 l34 35 5 -43 5 -43 95 0 94 0 19 49 c22 61 57 186 52 186 -3 0 -16 -21 -29 -48 -13 -26 -34 -58 -46 -72 l-22 -25 20 35 c10 19 32 59 47 88 29 54 52 65 71 35 44 -73 75 -135 65 -129 -6 4 -25 33 -42 64 l-30 57 6 -40 c4 -22 19 -76 33 -120 l27 -80 98 -3 97 -3 0 46 c0 25 4 45 9 45 5 0 25 -18 44 -40 l35 -41 4 31 c4 28 2 31 -16 26 -16 -4 -34 9 -80 57 -98 104 -141 158 -209 260 l-66 97 -53 -82z"/>
<path d="M2245 808 c-3 -7 -4 -112 -3 -233 3 -212 4 -220 23 -220 17 0 21 8 25 60 l5 60 100 5 c108 6 124 12 170 59 25 27 30 41 33 96 5 76 -16 120 -76 157 -32 20 -53 23 -154 27 -93 2 -119 0 -123 -11z m219 -49 c57 -16 86 -52 86 -108 0 -89 -46 -121 -175 -121 l-85 0 0 113 c0 63 3 117 7 120 10 11 124 8 167 -4z"/>
<path d="M2915 804 c-164 -58 -210 -272 -84 -391 47 -44 97 -63 169 -63 71 0 112 15 163 60 39 34 44 49 25 68 -8 8 -20 4 -46 -20 -69 -60 -151 -74 -227 -39 -72 33 -105 86 -105 167 0 101 79 177 183 175 62 0 103 -14 134 -43 25 -23 53 -18 53 10 0 21 -55 62 -109 80 -44 16 -106 14 -156 -4z"/>
<path d="M166 795 c-8 -21 -8 -408 0 -429 3 -9 15 -16 25 -16 17 0 19 8 19 72 0 60 4 76 22 95 l21 23 103 -96 c98 -90 131 -108 141 -77 4 10 -102 118 -181 185 l-28 24 106 100 c80 75 105 104 100 117 -3 9 -12 17 -20 17 -7 0 -66 -49 -129 -110 -64 -60 -120 -110 -125 -110 -5 0 -11 48 -12 107 -3 90 -6 108 -19 111 -9 2 -19 -4 -23 -13z"/>
<path d="M1555 788 c-3 -13 -4 -115 -3 -228 3 -204 3 -205 26 -208 l22 -3 0 161 c0 104 4 160 10 158 6 -2 45 -62 88 -133 52 -87 84 -131 97 -133 16 -2 36 25 100 132 44 75 83 136 87 136 4 0 9 -71 10 -157 3 -150 4 -158 23 -158 19 0 20 7 20 225 0 201 -2 225 -17 228 -12 2 -43 -41 -112 -157 -53 -88 -101 -163 -106 -166 -4 -3 -53 68 -107 157 -98 162 -127 193 -138 146z"/>
<path d="M3377 804 c-4 -4 -7 -108 -7 -231 l0 -224 23 3 c21 3 22 8 25 101 l3 97 129 0 129 0 3 -97 c3 -93 4 -98 26 -101 l22 -3 -2 228 c-3 220 -4 228 -23 228 -18 0 -20 -8 -23 -97 l-3 -98 -129 0 -129 0 -3 97 c-2 79 -6 98 -18 101 -9 1 -19 0 -23 -4z"/>
<path d="M3935 788 c-3 -13 -4 -115 -3 -228 3 -205 3 -205 26 -208 l22 -3 -2 228 c-3 206 -5 228 -20 231 -11 2 -19 -5 -23 -20z"/>
</g>
</svg>