<svg width="64" height="65" viewBox="0 0 64 65" fill="currentColor" xmlns="http://www.w3.org/2000/svg">
<path d="M24.5137 18.9436C25.4365 18.9436 26.3386 18.6699 27.106 18.1572C27.8733 17.6445 28.4713 16.9158 28.8245 16.0632C29.1776 15.2106 29.27 14.2724 29.09 13.3673C28.91 12.4622 28.4656 11.6308 27.813 10.9782C27.1605 10.3257 26.3291 9.88127 25.424 9.70123C24.5188 9.52119 23.5807 9.61359 22.7281 9.96675C21.8755 10.3199 21.1467 10.918 20.634 11.6853C20.1213 12.4526 19.8477 13.3547 19.8477 14.2776C19.8489 15.5147 20.3409 16.7008 21.2157 17.5755C22.0905 18.4503 23.2765 18.9423 24.5137 18.9436V18.9436ZM24.5137 11.6116C25.0409 11.6116 25.5564 11.7679 25.9948 12.0609C26.4332 12.3538 26.7749 12.7702 26.9767 13.2573C27.1785 13.7445 27.2313 14.2805 27.1284 14.7977C27.0256 15.3148 26.7717 15.7899 26.3988 16.1627C26.026 16.5356 25.5509 16.7895 25.0338 16.8923C24.5166 16.9952 23.9806 16.9424 23.4934 16.7406C23.0063 16.5389 22.5899 16.1971 22.297 15.7587C22.004 15.3203 21.8477 14.8049 21.8477 14.2776C21.8486 13.5708 22.1297 12.8932 22.6295 12.3934C23.1293 11.8936 23.8069 11.6124 24.5137 11.6115V11.6116Z" fill="current"/>
<path d="M44.6855 14.7932C44.6856 15.529 44.9039 16.2482 45.3127 16.8599C45.7215 17.4716 46.3026 17.9483 46.9823 18.2299C47.6621 18.5114 48.4101 18.585 49.1317 18.4414C49.8533 18.2979 50.5161 17.9436 51.0364 17.4233C51.5566 16.9031 51.9109 16.2402 52.0545 15.5186C52.198 14.797 52.1244 14.049 51.8429 13.3693C51.5614 12.6895 51.0846 12.1085 50.4729 11.6997C49.8612 11.2909 49.142 11.0726 48.4062 11.0725C47.4198 11.0736 46.474 11.4659 45.7765 12.1635C45.079 12.861 44.6866 13.8067 44.6855 14.7932V14.7932ZM48.4062 13.0725C48.7466 13.0725 49.0793 13.1734 49.3622 13.3625C49.6452 13.5516 49.8657 13.8203 49.996 14.1347C50.1262 14.4491 50.1603 14.7951 50.0939 15.1289C50.0275 15.4627 49.8636 15.7693 49.623 16.0099C49.3823 16.2506 49.0757 16.4145 48.7419 16.4808C48.4082 16.5472 48.0622 16.5132 47.7478 16.3829C47.4333 16.2527 47.1646 16.0321 46.9755 15.7492C46.7865 15.4662 46.6855 15.1335 46.6855 14.7932C46.6859 14.337 46.8673 13.8995 47.1899 13.5769C47.5125 13.2543 47.95 13.0729 48.4062 13.0725V13.0725Z" fill="current"/>
<path d="M39.0127 15.7932H41.4307C41.6959 15.7932 41.9503 15.6879 42.1378 15.5003C42.3253 15.3128 42.4307 15.0584 42.4307 14.7932C42.4307 14.528 42.3253 14.2736 42.1378 14.0861C41.9503 13.8986 41.6959 13.7932 41.4307 13.7932H39.0127C38.7475 13.7932 38.4931 13.8986 38.3056 14.0861C38.1181 14.2736 38.0127 14.528 38.0127 14.7932C38.0127 15.0584 38.1181 15.3128 38.3056 15.5003C38.4931 15.6879 38.7475 15.7932 39.0127 15.7932Z" fill="currentColor"/>
<path d="M55.3809 15.7932H57.7989C58.0641 15.7932 58.3184 15.6879 58.506 15.5003C58.6935 15.3128 58.7989 15.0584 58.7989 14.7932C58.7989 14.528 58.6935 14.2736 58.506 14.0861C58.3184 13.8986 58.0641 13.7932 57.7989 13.7932H55.3809C55.1156 13.7932 54.8613 13.8986 54.6738 14.0861C54.4862 14.2736 54.3809 14.528 54.3809 14.7932C54.3809 15.0584 54.4862 15.3128 54.6738 15.5003C54.8613 15.6879 55.1156 15.7932 55.3809 15.7932Z" fill="currentColor"/>
<path d="M44.1186 9.20158C44.249 9.43204 44.4655 9.60138 44.7206 9.67248C44.9757 9.74358 45.2486 9.71063 45.4794 9.58086C45.7103 9.4511 45.8803 9.23509 45.9521 8.98021C46.0239 8.72532 45.9918 8.45235 45.8627 8.22112L44.6782 6.11272C44.5481 5.88143 44.3316 5.71127 44.0761 5.63966C43.8206 5.56806 43.5471 5.60087 43.3158 5.73089C43.0846 5.86091 42.9144 6.07748 42.8428 6.33297C42.7712 6.58845 42.804 6.86191 42.934 7.0932L44.1186 9.20158Z" fill="currentColor"/>
<path d="M51.3314 20.0032C51.1001 20.1333 50.93 20.3499 50.8584 20.6054C50.7868 20.8608 50.8196 21.1342 50.9495 21.3656L52.1341 23.4739C52.1982 23.5889 52.2844 23.69 52.3878 23.7715C52.4911 23.8531 52.6095 23.9135 52.7362 23.9492C52.8629 23.9849 52.9953 23.9952 53.126 23.9797C53.2567 23.9641 53.3831 23.9228 53.4978 23.8583C53.6126 23.7938 53.7134 23.7073 53.7947 23.6038C53.8759 23.5002 53.9359 23.3816 53.9713 23.2549C54.0066 23.1281 54.0166 22.9955 54.0006 22.8649C53.9846 22.7342 53.943 22.608 53.8782 22.4935L52.6937 20.3851C52.5634 20.154 52.3469 19.984 52.0915 19.9124C51.8361 19.8408 51.5627 19.8735 51.3314 20.0032Z" fill="currentColor"/>
<path d="M51.3314 9.58336C51.5628 9.71307 51.8362 9.74572 52.0916 9.67413C52.3469 9.60255 52.5635 9.43258 52.6937 9.20152L53.5814 7.62152C53.6458 7.507 53.687 7.38092 53.7027 7.25048C53.7183 7.12003 53.7081 6.98779 53.6727 6.86129C53.6372 6.73478 53.5772 6.6165 53.496 6.5132C53.4149 6.40989 53.3141 6.32359 53.1996 6.25921C53.0851 6.19483 52.959 6.15364 52.8286 6.13799C52.6981 6.12233 52.5659 6.13252 52.4394 6.16798C52.3129 6.20344 52.1946 6.26346 52.0913 6.34463C51.988 6.4258 51.9017 6.52652 51.8373 6.64104L50.9496 8.22104C50.8196 8.45234 50.7868 8.72579 50.8584 8.98127C50.93 9.23675 51.1002 9.45332 51.3314 9.58336V9.58336Z" fill="currentColor"/>
<path d="M43.3157 23.8559C43.5471 23.9856 43.8204 24.0182 44.0758 23.9467C44.3312 23.8751 44.5478 23.7051 44.678 23.474L45.8626 21.3657C45.927 21.2511 45.9682 21.1251 45.9838 20.9946C45.9995 20.8642 45.9893 20.7319 45.9538 20.6054C45.9184 20.4789 45.8583 20.3606 45.7772 20.2573C45.696 20.154 45.5953 20.0677 45.4808 20.0033C45.3662 19.939 45.2402 19.8978 45.1097 19.8821C44.9793 19.8665 44.847 19.8767 44.7205 19.9121C44.594 19.9476 44.4757 20.0076 44.3724 20.0888C44.2691 20.1699 44.1828 20.2707 44.1185 20.3852L42.9339 22.4936C42.804 22.7249 42.7712 22.9983 42.8428 23.2538C42.9144 23.5092 43.0845 23.7258 43.3157 23.8559V23.8559Z" fill="currentColor"/>
<path d="M61.0957 35.931C61.0244 35.676 60.8551 35.4595 60.6248 35.3287C60.3945 35.1979 60.1218 35.1635 59.8662 35.2328L40.6078 40.5475L38.8604 27.557C38.8249 27.2941 38.6864 27.0561 38.4755 26.8953C38.2645 26.7345 37.9983 26.6641 37.7354 26.6996C37.4725 26.7351 37.2345 26.8735 37.0737 27.0845C36.9129 27.2955 36.8425 27.5617 36.8779 27.8246L37.7871 34.5834C35.3406 34.6159 32.9546 33.8225 31.0147 32.3314C30.4473 31.7865 30.0037 31.1261 29.7137 30.3949C29.4238 29.6637 29.2943 28.8787 29.334 28.0931C29.3324 26.7843 28.8118 25.5296 27.8864 24.6042C26.9609 23.6788 25.7062 23.1582 24.3975 23.1566C23.2321 23.1615 22.1069 23.5825 21.2245 24.3438C20.8836 23.2117 20.1465 22.2401 19.1481 21.6068C18.1497 20.9734 16.9567 20.7206 15.7872 20.8947C14.6177 21.0687 13.55 21.6579 12.7792 22.5546C12.0085 23.4512 11.5863 24.5953 11.5899 25.7777V33.0003C11.5879 33.7094 11.7274 34.4117 12.0002 35.0662C12.273 35.7207 12.6737 36.3142 13.1787 36.8118C13.675 37.321 14.2711 37.7222 14.9297 37.9903C15.5882 38.2583 16.2951 38.3874 17.0059 38.3695C18.3154 38.3575 19.093 38.3616 19.5646 38.3699C19.8815 40.6758 21.0282 42.787 22.79 44.308L23.4187 44.8497L21.5967 50.3139L15.5957 56.1644C15.5005 56.2559 15.4243 56.3652 15.3716 56.4862C15.3189 56.6072 15.2906 56.7374 15.2884 56.8694C15.2863 57.0014 15.3103 57.1325 15.359 57.2551C15.4078 57.3778 15.4803 57.4896 15.5725 57.5841C15.6646 57.6785 15.7746 57.7538 15.896 57.8056C16.0174 57.8574 16.1478 57.8846 16.2798 57.8858C16.4118 57.8869 16.5427 57.8619 16.665 57.8121C16.7872 57.7624 16.8985 57.689 16.9922 57.5961L23.167 51.5765C23.2813 51.4655 23.3671 51.3285 23.417 51.1771L25.056 46.26L29.6904 50.2524L33.1504 57.1732C33.2088 57.2912 33.29 57.3965 33.3892 57.4831C33.4884 57.5696 33.6037 57.6357 33.7286 57.6776C33.8534 57.7195 33.9852 57.7363 34.1166 57.7271C34.2479 57.7179 34.3761 57.6828 34.4939 57.6239C34.6117 57.5651 34.7166 57.4835 34.8028 57.384C34.889 57.2844 34.9546 57.1688 34.996 57.0439C35.0374 56.9189 35.0537 56.787 35.044 56.6557C35.0343 56.5244 34.9988 56.3963 34.9395 56.2787L31.3897 49.178C31.3301 49.0597 31.2478 48.9542 31.1475 48.8675L24.0947 42.7923C23.2683 42.0805 22.6053 41.1988 22.1509 40.2073C21.6965 39.2158 21.4615 38.1379 21.4619 37.0472V28.0932C21.4619 27.3145 21.7713 26.5677 22.3219 26.0171C22.8725 25.4665 23.6193 25.1572 24.3979 25.1572C25.1766 25.1572 25.9234 25.4665 26.474 26.0171C27.0246 26.5677 27.3339 27.3145 27.3339 28.0932V39.4379C27.3339 39.7031 27.4393 39.9575 27.6268 40.145C27.8144 40.3325 28.0687 40.4379 28.3339 40.4379C28.5992 40.4379 28.8535 40.3325 29.0411 40.145C29.2286 39.9575 29.3339 39.7031 29.3339 39.4379V33.4282C29.4434 33.5452 29.5269 33.6781 29.6455 33.7894C32.036 35.6768 35.0121 36.6672 38.0568 36.5886L38.6616 41.0846L32.9687 42.6557C32.8416 42.6901 32.7226 42.7493 32.6184 42.8298C32.5143 42.9104 32.427 43.0107 32.3618 43.1251C32.2965 43.2394 32.2544 43.3655 32.238 43.4962C32.2216 43.6268 32.2312 43.7594 32.2662 43.8864C32.3012 44.0133 32.3609 44.1321 32.4419 44.2359C32.5229 44.3397 32.6236 44.4265 32.7382 44.4912C32.8529 44.556 32.9792 44.5975 33.1099 44.6133C33.2406 44.6291 33.3732 44.619 33.5 44.5834L38.9306 43.0848L40.8066 57.0308C40.839 57.2705 40.9572 57.4904 41.1392 57.6496C41.3213 57.8089 41.555 57.8968 41.7969 57.897C41.8419 57.8969 41.8869 57.894 41.9316 57.8882C42.1944 57.8525 42.4323 57.714 42.5931 57.5031C42.7538 57.2921 42.8243 57.026 42.789 56.7632L40.8768 42.5477L60.3974 37.1606C60.5241 37.1259 60.6427 37.0665 60.7464 36.9859C60.8501 36.9053 60.9369 36.805 61.0018 36.6908C61.0666 36.5765 61.1083 36.4506 61.1244 36.3203C61.1406 36.1899 61.1308 36.0576 61.0957 35.931V35.931ZM19.462 28.0932V36.3627C18.8722 36.3529 18.0733 36.3607 16.9894 36.3695C16.5445 36.3733 16.1032 36.2889 15.691 36.1213C15.2789 35.9537 14.904 35.7061 14.588 35.3929C14.272 35.0797 14.0211 34.7071 13.8498 34.2964C13.6785 33.8858 13.5902 33.4453 13.5899 33.0004V25.7777C13.5899 24.999 13.8993 24.2523 14.4499 23.7017C15.0005 23.1511 15.7473 22.8417 16.5259 22.8417C17.3046 22.8417 18.0514 23.1511 18.602 23.7017C19.1526 24.2523 19.4619 24.999 19.4619 25.7777L19.462 28.0932Z" fill="currentColor"/>
<path d="M17.9899 47.8265C17.9187 47.5713 17.7495 47.3547 17.5191 47.2238C17.2887 47.093 17.016 47.0587 16.7604 47.1283L3.60216 50.7591C3.47549 50.7939 3.35691 50.8533 3.25322 50.934C3.14952 51.0146 3.06273 51.1149 2.99781 51.2291C2.93289 51.3433 2.89111 51.4692 2.87486 51.5995C2.85862 51.7299 2.86822 51.8622 2.90312 51.9888C2.93802 52.1155 2.99753 52.234 3.07826 52.3376C3.15899 52.4413 3.25935 52.528 3.37361 52.5928C3.48786 52.6576 3.61378 52.6993 3.74414 52.7154C3.87451 52.7316 4.00679 52.7219 4.1334 52.6868L17.2916 49.056C17.4183 49.0213 17.5369 48.9619 17.6406 48.8813C17.7442 48.8006 17.831 48.7003 17.8959 48.5861C17.9607 48.4719 18.0024 48.346 18.0185 48.2157C18.0347 48.0853 18.0249 47.9531 17.9899 47.8265V47.8265Z" fill="currentColor"/>
</svg>