<svg width="64" height="65" viewBox="0 0 64 65" fill="currentColor" xmlns="http://www.w3.org/2000/svg">
<path d="M55.8271 33.536C55.632 33.0301 55.632 32.4697 55.8271 31.9637L58.2542 25.6681C58.4347 25.1999 58.4485 24.6839 58.2935 24.2067C58.1384 23.7295 57.8238 23.3202 57.4026 23.0476L51.7386 19.3809C51.2836 19.0862 50.9543 18.6329 50.8146 18.109L49.0777 11.5891C48.9538 11.1239 48.6797 10.7126 48.2981 10.4192C47.9164 10.1257 47.4485 9.96652 46.9671 9.96632C46.9278 9.96632 46.8882 9.96728 46.8486 9.96948L40.111 10.3323C40.0717 10.3345 40.0327 10.3355 39.9935 10.3355C39.4917 10.3355 39.0052 10.1628 38.6158 9.84644L33.3781 5.59266C32.9886 5.27639 32.5021 5.10376 32.0004 5.10376C31.4987 5.10376 31.0122 5.27639 30.6227 5.59266L25.3852 9.84644C24.9957 10.1628 24.5092 10.3355 24.0075 10.3355C23.9684 10.3355 23.9292 10.3345 23.8899 10.3323L17.1524 9.96948C17.1127 9.96728 17.0733 9.96632 17.0339 9.96632C16.5524 9.96656 16.0846 10.1258 15.7029 10.4192C15.3213 10.7127 15.0472 11.1239 14.9233 11.5891L13.1863 18.1091C13.0468 18.633 12.7174 19.0863 12.2623 19.381L6.59835 23.0477C6.17713 23.3203 5.86258 23.7296 5.70753 24.2068C5.55248 24.684 5.56639 25.2 5.74691 25.6682L8.17391 31.9638C8.36897 32.4698 8.36897 33.0302 8.17391 33.5361L5.74691 39.8316C5.5664 40.2998 5.5525 40.8158 5.70754 41.2931C5.86259 41.7703 6.17714 42.1796 6.59835 42.4523L12.2623 46.119C12.7175 46.4136 13.0468 46.8669 13.1863 47.3908L14.9233 53.9108C15.0472 54.376 15.3213 54.7873 15.7029 55.0807C16.0846 55.3742 16.5524 55.5334 17.0339 55.5336C17.0732 55.5336 17.1128 55.5326 17.1524 55.5305L23.8899 55.1676C23.9293 55.1655 23.9685 55.1644 24.0075 55.1644C24.5092 55.1645 24.9957 55.3371 25.3852 55.6534L30.6227 59.9072C31.0122 60.2235 31.4987 60.3962 32.0004 60.3962C32.5022 60.3962 32.9886 60.2235 33.3781 59.9072L38.6157 55.6534C39.0052 55.3371 39.4916 55.1644 39.9933 55.1644C40.0324 55.1644 40.0717 55.1655 40.1109 55.1676L46.8485 55.5305C46.8881 55.5326 46.9276 55.5336 46.967 55.5336C47.4484 55.5334 47.9163 55.3742 48.2979 55.0807C48.6796 54.7873 48.9536 54.376 49.0776 53.9108L50.8145 47.3909C50.9541 46.8671 51.2834 46.4138 51.7385 46.1191L57.4025 42.4524C57.8237 42.1797 58.1383 41.7704 58.2933 41.2932C58.4484 40.816 58.4345 40.2999 58.2541 39.8317L55.8271 33.536ZM56.3158 40.7732L50.6517 44.4399C49.7795 45.0037 49.1486 45.8722 48.8819 46.8759L47.1451 53.3957C47.1337 53.4364 47.109 53.4722 47.0748 53.4971C47.0406 53.5221 46.999 53.5347 46.9567 53.5331H46.956L40.2188 53.1702C40.1436 53.1662 40.0684 53.1642 39.9933 53.1641C39.0326 53.1651 38.1012 53.4957 37.3548 54.1006L32.1172 58.3544C32.0842 58.3812 32.043 58.3959 32.0004 58.3959C31.9579 58.3959 31.9166 58.3812 31.8836 58.3544L26.646 54.1006C25.8996 53.4957 24.9683 53.1651 24.0075 53.1641C23.9324 53.1641 23.8574 53.1661 23.7824 53.1702L17.0338 53.5333C16.9932 53.5332 16.9537 53.5196 16.9215 53.4947C16.8893 53.4699 16.8663 53.4351 16.8558 53.3958L15.1189 46.8758C14.8523 45.872 14.2213 45.0036 13.3491 44.4398L7.68499 40.7732C7.64941 40.75 7.62284 40.7153 7.60972 40.6748C7.59659 40.6344 7.59769 40.5907 7.61283 40.551L10.04 34.2554C10.4142 33.2866 10.4142 32.2131 10.04 31.2443L7.61283 24.9487C7.5977 24.909 7.5966 24.8653 7.60973 24.8249C7.62285 24.7844 7.64941 24.7497 7.68499 24.7264L13.3492 21.0597C14.2214 20.4959 14.8523 19.6274 15.1189 18.6237L16.8559 12.1039C16.8672 12.0631 16.8919 12.0274 16.9261 12.0025C16.9603 11.9776 17.0019 11.9649 17.0441 11.9666H17.0448L23.782 12.3293C23.8573 12.3335 23.9325 12.3355 24.0075 12.3355C24.9683 12.3345 25.8997 12.0039 26.6462 11.3989L31.8836 7.14514C31.9166 7.11837 31.9579 7.10376 32.0004 7.10376C32.0429 7.10376 32.0842 7.11837 32.1172 7.14514L37.3548 11.3989C38.1012 12.0039 39.0326 12.3345 39.9933 12.3355C40.0684 12.3355 40.1434 12.3335 40.2184 12.3295L46.967 11.9663C47.0077 11.9665 47.0472 11.98 47.0794 12.0049C47.1116 12.0298 47.1347 12.0646 47.1451 12.1039L48.8819 18.6239C49.1486 19.6276 49.7796 20.496 50.6518 21.0599L56.3158 24.7266C56.3514 24.7498 56.378 24.7845 56.3911 24.825C56.4042 24.8654 56.4031 24.9091 56.3879 24.9488L53.9608 31.2444C53.5866 32.2132 53.5867 33.2867 53.9609 34.2554L56.3879 40.5511C56.4031 40.5908 56.4042 40.6345 56.3911 40.6749C56.378 40.7153 56.3514 40.75 56.3158 40.7732V40.7732Z" fill="currentColor"/>
<path d="M42.6177 25.3682L30.7339 37.2529L26.1148 32.6348C25.9266 32.4504 25.6733 32.3477 25.4099 32.349C25.1465 32.3503 24.8942 32.4556 24.7079 32.6419C24.5216 32.8281 24.4164 33.0804 24.4151 33.3439C24.4137 33.6073 24.5164 33.8606 24.7008 34.0488L30.027 39.374C30.1198 39.4668 30.23 39.5405 30.3513 39.5908C30.4726 39.641 30.6026 39.6669 30.734 39.6669C30.8653 39.6669 30.9953 39.641 31.1166 39.5908C31.2379 39.5405 31.3481 39.4668 31.441 39.374L44.0318 26.7822C44.1262 26.6897 44.2013 26.5794 44.2528 26.4576C44.3043 26.3359 44.3311 26.2052 44.3318 26.0731C44.3325 25.9409 44.3069 25.8099 44.2567 25.6877C44.2064 25.5655 44.1324 25.4544 44.039 25.361C43.9455 25.2675 43.8345 25.1935 43.7122 25.1433C43.59 25.093 43.459 25.0675 43.3269 25.0681C43.1947 25.0688 43.064 25.0957 42.9423 25.1472C42.8206 25.1987 42.7103 25.2738 42.6178 25.3682H42.6177Z" fill="currentColor"/>
</svg>