<svg width="64" height="65" viewBox="0 0 64 65" fill="currentColor" xmlns="http://www.w3.org/2000/svg">
<path d="M9.89617 31.466C10.1011 31.4659 10.301 31.403 10.469 31.2856C10.6369 31.1682 10.7647 31.0021 10.8352 30.8097C10.9056 30.6173 10.9152 30.4078 10.8627 30.2098C10.8102 30.0117 10.6982 29.8346 10.5417 29.7023L8.13933 27.672C7.48738 27.1167 7.08177 26.3259 7.01114 25.4724C6.94051 24.6189 7.2106 23.7722 7.76239 23.1173L11.5231 18.6046C12.1306 17.9945 12.9401 17.6275 13.7993 17.5727C14.6584 17.5178 15.508 17.7789 16.1882 18.3067C19.4899 20.3702 20.8346 18.7501 22.1364 17.1837C22.3669 16.9063 22.613 16.6094 22.8903 16.3057C23.4114 15.6231 24.1698 15.1609 25.0153 15.0107C25.3133 15.0321 25.6038 15.1142 25.869 15.2519C26.1342 15.3896 26.3684 15.58 26.5573 15.8115C26.7425 16.0005 26.995 16.1085 27.2596 16.1117C27.5242 16.1149 27.7793 16.013 27.9689 15.8285C28.1586 15.644 28.2674 15.3919 28.2715 15.1273C28.2757 14.8627 28.1747 14.6073 27.9909 14.417C27.6165 13.9842 27.155 13.6352 26.6365 13.3929C26.1181 13.1506 25.5543 13.0204 24.9821 13.0107C24.2849 13.0716 23.6078 13.2759 22.9933 13.6111C22.3789 13.9462 21.8404 14.4048 21.4118 14.958C21.113 15.2861 20.8473 15.6064 20.5983 15.9053C19.3317 17.4307 19.071 17.75 17.2487 16.6113C16.1627 15.8188 14.8233 15.453 13.4852 15.5833C12.1471 15.7137 10.9036 16.3311 9.99091 17.3183L6.23015 21.8311C5.33638 22.8908 4.89951 24.2617 5.01541 25.6431C5.1313 27.0244 5.7905 28.3034 6.84833 29.1993L9.25067 31.2296C9.43084 31.3827 9.65972 31.4665 9.89617 31.466Z" fill="currentColor"/>
<path d="M30.1872 41.5548C29.6745 41.0941 29.0255 40.8131 28.3388 40.7546C28.3721 40.2762 28.2967 39.7964 28.1185 39.3512C27.9402 38.906 27.6635 38.5069 27.3092 38.1837L26.4899 37.4415C25.8791 36.8896 25.0783 36.5958 24.2555 36.6218C24.2014 35.8015 23.8306 35.0344 23.2213 34.4825L22.402 33.7403C21.7941 33.1905 20.9972 32.8969 20.1779 32.921C20.1203 32.104 19.7497 31.3407 19.1432 30.7901L18.5309 30.2354C17.8991 29.671 17.0716 29.3762 16.2252 29.4141C15.8058 29.4335 15.3945 29.5359 15.0149 29.7154C14.6354 29.895 14.2953 30.1481 14.0143 30.46L8.71548 36.3116C8.14708 36.9407 7.85149 37.7696 7.8936 38.6164C7.93571 39.4631 8.31207 40.2586 8.94008 40.8282L9.5524 41.3829C9.87596 41.6705 10.2555 41.8881 10.6673 42.0219C10.2754 42.6572 10.1182 43.4096 10.2228 44.1486C10.3274 44.8876 10.6872 45.5668 11.2399 46.0684L12.0592 46.8096C12.6463 47.3425 13.411 47.6371 14.2038 47.6358C14.2334 47.6358 14.2627 47.6276 14.2924 47.6268C14.3475 48.4483 14.719 49.2164 15.3288 49.7696L16.1481 50.5118C16.6325 50.9546 17.2431 51.2351 17.8947 51.3141C18.5462 51.3931 19.2061 51.2668 19.7824 50.9527C19.9577 51.4086 20.2363 51.8175 20.5964 52.1475L21.2087 52.7022C21.8377 53.2708 22.6666 53.5666 23.5135 53.5244C24.3603 53.4823 25.1558 53.1058 25.7253 52.4776L31.0241 46.626C31.5925 45.9969 31.8881 45.168 31.846 44.3212C31.8038 43.4744 31.4275 42.6789 30.7995 42.1094L30.1872 41.5548ZM10.1979 37.6534L15.4977 31.8018C15.6027 31.6852 15.73 31.5907 15.872 31.5238C16.014 31.4569 16.168 31.4189 16.3248 31.4122C16.6415 31.3968 16.9516 31.5066 17.1881 31.7178L17.8014 32.2725C18.0365 32.4861 18.1774 32.7841 18.1931 33.1014C18.2089 33.4186 18.0982 33.7291 17.8854 33.9649L12.5866 39.8165C12.4811 39.9331 12.3534 40.0276 12.2111 40.0944C12.0688 40.1613 11.9146 40.1993 11.7575 40.2061C11.4407 40.2219 11.1305 40.1121 10.8942 39.9005L10.2819 39.3458C10.0468 39.1322 9.90589 38.8342 9.89015 38.5169C9.87441 38.1997 9.98508 37.8892 10.1979 37.6534V37.6534ZM13.401 45.3272L12.5827 44.586C12.3488 44.3717 12.2088 44.0738 12.193 43.757C12.1773 43.4402 12.2871 43.13 12.4987 42.8936L19.3678 35.3067C19.4733 35.1901 19.601 35.0956 19.7433 35.0287C19.8856 34.9618 20.0398 34.9239 20.1969 34.917L20.2584 34.915C20.5547 34.9141 20.8406 35.0238 21.0602 35.2226L21.8795 35.9648C22.113 36.1792 22.2527 36.4769 22.2682 36.7935C22.2838 37.1101 22.1739 37.42 21.9625 37.6562L15.0934 45.2432C14.8801 45.4788 14.582 45.62 14.2646 45.6357C13.9472 45.6515 13.6366 45.5405 13.401 45.3272V45.3272ZM17.4899 49.0294L16.6706 48.2872C16.4354 48.0736 16.2946 47.7756 16.2788 47.4583C16.2631 47.1411 16.3737 46.8306 16.5866 46.5948L23.4557 39.0088C23.5612 38.892 23.6887 38.7971 23.8308 38.7296C23.973 38.6622 24.1271 38.6234 24.2843 38.6155C24.4415 38.6076 24.5987 38.6307 24.7469 38.6837C24.8951 38.7366 25.0314 38.8182 25.1481 38.9238L25.9664 39.666C26.2015 39.8796 26.3424 40.1775 26.3583 40.4947C26.3742 40.8118 26.2639 41.1224 26.0514 41.3584L25.674 41.7752L25.6705 41.7783L21.4905 46.395L19.1813 48.9454C18.9678 49.1802 18.67 49.321 18.3529 49.3367C18.0359 49.3524 17.7256 49.2419 17.4899 49.0294ZM29.5417 45.2843L24.2428 51.1358C24.0286 51.3697 23.7307 51.5097 23.4139 51.5255C23.0971 51.5412 22.7868 51.4314 22.5504 51.2198L21.9381 50.6651C21.703 50.4516 21.5621 50.1535 21.5464 49.8363C21.5306 49.5191 21.6413 49.2085 21.8541 48.9727L27.1576 43.1167C27.372 42.8846 27.6691 42.7462 27.9847 42.7313C28.3003 42.7164 28.6091 42.8263 28.8444 43.0371L29.4576 43.5918C29.6928 43.8054 29.8337 44.1034 29.8494 44.4207C29.8652 44.7379 29.7545 45.0485 29.5417 45.2843V45.2843Z" fill="currentColor"/>
<path d="M57.1757 23.7754C59.4091 21.0342 60.4618 18.8965 54.8827 14.2676C52.62 12.3887 50.2821 10.4493 45.3749 13.7813C44.4951 14.5966 43.3377 15.0461 42.1383 15.0385C40.9388 15.0309 39.7873 14.5667 38.9179 13.7403L38.6152 13.5401C37.5725 12.7919 36.298 12.4384 35.0189 12.5426C33.7399 12.6469 32.5394 13.2022 31.6318 14.1094L26.7948 18.9131C26.1571 19.4712 25.7658 20.2586 25.7062 21.1039C25.6466 21.9492 25.9234 22.7838 26.4764 23.4258C26.5235 23.517 26.5845 23.6004 26.6571 23.6729C27.466 24.5963 28.574 25.2057 29.787 25.3946C30.5221 25.4229 31.2539 25.2824 31.9263 24.984C32.5987 24.6855 33.1937 24.237 33.6659 23.6729L34.0614 23.2774C34.7225 22.6153 36.2977 23.544 37.0858 24.1651L47.3544 33.1504L47.356 33.1513L54.3075 39.4453C54.419 39.5474 54.5089 39.6707 54.572 39.8081C54.635 39.9454 54.67 40.094 54.6747 40.2451C54.6879 40.5634 54.5749 40.874 54.3602 41.1094L53.619 41.9287C53.406 42.1656 53.108 42.3088 52.7899 42.3271C52.639 42.3393 52.4872 42.3201 52.3441 42.2709C52.2009 42.2217 52.0694 42.1434 51.9579 42.041L51.9344 42.0196C51.9168 42.003 51.9046 41.983 51.8866 41.9668L44.2997 35.0977C44.103 34.9205 43.844 34.8286 43.5797 34.8421C43.3153 34.8556 43.067 34.9734 42.8894 35.1697C42.7117 35.3659 42.6192 35.6247 42.632 35.8891C42.6449 36.1535 42.7621 36.402 42.9579 36.5801L43.1484 36.7527C43.1581 36.7621 43.1616 36.7751 43.1718 36.7842L50.5632 43.4756C50.7885 43.6904 50.9213 43.9844 50.9336 44.2954C50.9458 44.6063 50.8365 44.9099 50.6288 45.1416L49.8866 45.96C49.6734 46.1957 49.3754 46.337 49.058 46.353C48.7406 46.3689 48.4299 46.2581 48.1942 46.045L40.6073 39.1748C40.5417 39.123 40.4697 39.08 40.3929 39.0468L40.3759 39.0313C40.1793 38.8534 39.9201 38.7609 39.6552 38.774C39.3904 38.7872 39.1417 38.9051 38.9637 39.1016C38.7858 39.2982 38.6933 39.5574 38.7064 39.8223C38.7196 40.0871 38.8375 40.3358 39.0341 40.5138L46.621 47.3829C46.8561 47.5964 46.997 47.8945 47.0127 48.2117C47.0285 48.529 46.9178 48.8395 46.705 49.0753L45.9638 49.8936C45.7501 50.1284 45.4522 50.2691 45.1351 50.2851C44.818 50.301 44.5075 50.1908 44.2714 49.9786L36.6845 43.1095C36.4879 42.9315 36.2287 42.839 35.9639 42.8522C35.699 42.8653 35.4503 42.9832 35.2724 43.1798C35.0944 43.3763 35.0019 43.6356 35.0151 43.9004C35.0282 44.1652 35.1461 44.4139 35.3427 44.5919L39.458 48.3179C39.5065 48.4211 39.5726 48.5151 39.6532 48.5957C39.7392 48.6797 39.807 48.7806 39.8522 48.892C39.8974 49.0034 39.9191 49.123 39.9159 49.2432C39.9124 49.528 39.7998 49.8006 39.6015 50.0049L38.6073 51.0527C38.4133 51.2615 38.1466 51.388 37.8622 51.4063C37.7424 51.4166 37.6217 51.4017 37.508 51.3625C37.3943 51.3233 37.29 51.2607 37.202 51.1787L34.119 48.2529C33.9266 48.0703 33.6695 47.9717 33.4043 47.9786C33.1391 47.9856 32.8876 48.0976 32.705 48.2901C32.5224 48.4825 32.4237 48.7396 32.4307 49.0048C32.4376 49.27 32.5496 49.5215 32.7421 49.7041L35.8251 52.6299C36.3579 53.1349 37.0656 53.4138 37.7997 53.4083C37.8583 53.4083 37.9178 53.4073 37.9774 53.4034C38.7699 53.356 39.5143 53.0077 40.0585 52.4297L41.0526 51.3819C41.3337 51.0826 41.5535 50.7311 41.6995 50.3473L42.9296 51.461C43.5588 52.029 44.3876 52.3243 45.2343 52.2822C46.0809 52.2401 46.8764 51.864 47.4462 51.2364L48.1874 50.417C48.6977 49.8491 48.9857 49.1159 48.9983 48.3525C49.4449 48.3532 49.8867 48.2602 50.2951 48.0793C50.7035 47.8985 51.0694 47.634 51.369 47.3028L52.1122 46.4835C52.6451 45.8904 52.9356 45.1187 52.926 44.3215C53.7606 44.269 54.5415 43.8917 55.1014 43.2706L55.8427 42.4522C56.4099 41.829 56.7082 41.0071 56.6727 40.1651C56.6584 39.7482 56.5604 39.3384 56.3846 38.9601C56.2088 38.5818 55.9587 38.2427 55.6492 37.9629L49.4124 32.3159C51.0305 30.6676 55.0613 26.5195 56.452 24.6846C56.6962 24.3633 56.9413 24.0635 57.1757 23.7754ZM54.8583 23.4766C53.538 25.2188 49.4716 29.4004 47.9159 30.9844L38.3641 22.6279C37.337 21.7086 36.0355 21.1533 34.661 21.0479C34.2877 21.0406 33.9167 21.109 33.5706 21.2492C33.2244 21.3894 32.9104 21.5983 32.6473 21.8634L32.2518 22.2589C31.983 22.6064 31.6401 22.8897 31.248 23.088C30.8559 23.2863 30.4245 23.3948 29.9852 23.4054C29.301 23.272 28.6791 22.9184 28.2147 22.3985C28.1704 22.321 28.1159 22.2497 28.0527 22.1866C27.935 22.0695 27.8427 21.9293 27.7817 21.7749C27.7207 21.6205 27.6923 21.4551 27.6982 21.2892C27.7059 21.1132 27.7508 20.9408 27.8299 20.7835C27.909 20.6261 28.0206 20.4872 28.1572 20.3761L33.0477 15.5215C33.6312 14.9406 34.4047 14.5897 35.2262 14.5332C36.0476 14.4767 36.8619 14.7184 37.5194 15.2139L37.8124 15.4073C39.016 16.453 40.5554 17.0312 42.1499 17.0364C43.7443 17.0416 45.2875 16.4735 46.4979 15.4356C50.1581 12.9473 51.4559 14.0225 53.6845 15.8721C58.0712 19.5108 57.3545 20.3897 55.6249 22.5118C55.3768 22.8174 55.1161 23.1358 54.8583 23.4766Z" fill="currentColor"/>
</svg>