<svg width="64" height="65" viewBox="0 0 64 65" fill="currentColor" xmlns="http://www.w3.org/2000/svg">
<path d="M57.1621 42.5744C56.971 41.9476 56.5405 41.4213 55.9638 41.11C55.3872 40.7986 54.711 40.7272 54.0821 40.9113L45.6465 42.2307C45.5163 42.2505 45.3914 42.2958 45.2788 42.3641C45.1661 42.4323 45.0681 42.5221 44.9903 42.6283C44.9124 42.7345 44.8563 42.855 44.8252 42.983C44.7941 43.1109 44.7885 43.2437 44.8088 43.3738C44.8291 43.5039 44.8749 43.6287 44.9436 43.7411C45.0122 43.8535 45.1024 43.9511 45.2089 44.0286C45.3154 44.106 45.4361 44.1616 45.5642 44.1923C45.6922 44.223 45.8251 44.228 45.9551 44.2072L54.3614 42.8918C55.1084 42.7981 55.1074 42.7981 55.2891 43.2619C55.2871 43.4084 54.9454 43.9865 53.9121 44.5295C49.2559 46.6477 36.4903 52.1447 33.3731 52.1447C30.5422 52.1447 21.5788 48.826 17.6271 47.2598V37.0463C24.5818 34.2141 30.0952 38.6193 32.1776 40.7023C32.366 40.8894 32.6204 40.995 32.8859 40.9963H38.628C38.9342 40.9976 39.2274 41.1201 39.4435 41.3371C39.6596 41.5541 39.7809 41.8478 39.7809 42.154C39.7809 42.4603 39.6596 42.754 39.4435 42.971C39.2274 43.1879 38.9342 43.3105 38.628 43.3118H24.9864C24.7212 43.3118 24.4668 43.4171 24.2793 43.6046C24.0917 43.7922 23.9864 44.0465 23.9864 44.3118C23.9864 44.577 24.0917 44.8313 24.2793 45.0189C24.4668 45.2064 24.7212 45.3118 24.9864 45.3118H38.628C39.4641 45.3096 40.2652 44.976 40.8557 44.3841C41.4462 43.7921 41.7778 42.9901 41.7778 42.154C41.7778 41.3179 41.4462 40.516 40.8557 39.924C40.2652 39.3321 39.4641 38.9984 38.628 38.9963H33.2895C31.178 36.9854 25.1811 32.282 17.6269 34.8994V33.7249C17.627 33.5935 17.6012 33.4634 17.551 33.3421C17.5007 33.2207 17.4271 33.1105 17.3342 33.0176C17.2413 32.9247 17.1311 32.8511 17.0097 32.8008C16.8883 32.7506 16.7583 32.7248 16.6269 32.7249H7.71094C7.44572 32.7249 7.19137 32.8302 7.00383 33.0177C6.81629 33.2053 6.71094 33.4596 6.71094 33.7249C6.71094 33.9901 6.81629 34.2444 7.00383 34.432C7.19137 34.6195 7.44572 34.7249 7.71094 34.7249H15.6269V48.97H7.71094C7.44572 48.97 7.19137 49.0753 7.00383 49.2629C6.81629 49.4504 6.71094 49.7048 6.71094 49.97C6.71094 50.2352 6.81629 50.4895 7.00383 50.6771C7.19137 50.8646 7.44572 50.97 7.71094 50.97H16.6269C16.7583 50.9701 16.8883 50.9442 17.0097 50.894C17.1311 50.8438 17.2413 50.7701 17.3342 50.6772C17.4271 50.5844 17.5007 50.4741 17.551 50.3527C17.6012 50.2314 17.627 50.1013 17.6269 49.97V49.408C21.0957 50.7592 30.1098 54.1447 33.3729 54.1447C37.4882 54.1447 52.9862 47.1476 54.7899 46.3253C56.7187 45.3156 57.6494 43.843 57.1621 42.5744Z" fill="currentColor"/>
<path d="M35.1153 32.1664C35.4924 32.5012 35.9793 32.6861 36.4837 32.6859C36.988 32.6857 37.4747 32.5005 37.8516 32.1654L47.9141 23.2396C48.7495 22.309 49.325 21.1748 49.5829 19.9511C49.8408 18.7274 49.7718 17.4574 49.3829 16.2688C48.9941 15.0802 48.2991 14.015 47.3679 13.1803C46.4366 12.3457 45.302 11.7709 44.0781 11.514C42.7213 11.2261 41.312 11.3105 39.9992 11.7581C38.6865 12.2058 37.5192 13.0001 36.6211 14.057H36.5831C36.4971 14.056 36.2921 14.0541 36.2951 14.057C35.397 13 34.2298 12.2056 32.917 11.758C31.6042 11.3103 30.1948 11.226 28.8381 11.5141C27.6025 11.773 26.4581 12.3559 25.5222 13.203C24.5863 14.0501 23.8926 15.131 23.5122 16.3347C23.1319 17.5384 23.0787 18.8216 23.358 20.0527C23.6373 21.2838 24.2391 22.4184 25.1016 23.3401L35.1153 32.1664ZM25.2735 17.5141C25.4639 16.5262 25.9411 15.6163 26.6456 14.8979C27.35 14.1796 28.2504 13.6847 29.2345 13.4751C29.6217 13.3958 30.016 13.3559 30.4112 13.3559C31.232 13.3505 32.0443 13.5232 32.7919 13.8619C33.5396 14.2006 34.205 14.6973 34.7423 15.3179C34.9491 15.5736 35.2105 15.7798 35.5075 15.9212C35.8044 16.0627 36.1292 16.1358 36.4581 16.1353H36.4591C36.7879 16.1359 37.1127 16.0626 37.4095 15.921C37.7062 15.7793 37.9675 15.5729 38.1739 15.317C38.8448 14.5473 39.7091 13.9708 40.6773 13.647C41.6456 13.3233 42.6828 13.2639 43.6817 13.4752C44.6648 13.6845 45.5645 14.1786 46.2687 14.8958C46.9729 15.613 47.4504 16.5216 47.6417 17.5084C47.7978 18.2671 47.7763 19.0517 47.579 19.8008C47.3816 20.5499 47.0138 21.2432 46.5041 21.8265L36.4406 30.6683L26.508 21.9232C25.9697 21.3373 25.5773 20.6326 25.3628 19.8665C25.1483 19.1003 25.1177 18.2943 25.2735 17.5141V17.5141Z" fill="currentColor"/>
</svg>