<svg width="64" height="65" viewBox="0 0 64 65" fill="currentColor" xmlns="http://www.w3.org/2000/svg">
<path d="M54.2744 29.3401H51.3332C51.0699 29.3413 50.8177 29.4467 50.6319 29.6333C50.4461 29.82 50.3418 30.0726 50.3418 30.3359C50.3418 30.5993 50.4461 30.8519 50.6319 31.0386C50.8177 31.2252 51.0699 31.3306 51.3332 31.3318H54.2744C54.4055 31.3324 54.5355 31.3071 54.6568 31.2573C54.7782 31.2075 54.8885 31.1342 54.9814 31.0417C55.0744 30.9492 55.1481 30.8392 55.1984 30.7181C55.2488 30.597 55.2747 30.4671 55.2747 30.3359C55.2747 30.2048 55.2488 30.0749 55.1984 29.9538C55.1481 29.8327 55.0744 29.7227 54.9814 29.6302C54.8885 29.5377 54.7782 29.4644 54.6568 29.4146C54.5355 29.3648 54.4055 29.3395 54.2744 29.3401V29.3401Z" fill="currentColor"/>
<path d="M36.6941 51.6553H26.8001C26.669 51.6547 26.539 51.68 26.4177 51.7298C26.2963 51.7796 26.186 51.8528 26.0931 51.9454C26.0001 52.0379 25.9264 52.1479 25.876 52.269C25.8257 52.3901 25.7998 52.52 25.7998 52.6511C25.7998 52.7823 25.8257 52.9121 25.876 53.0333C25.9264 53.1544 26.0001 53.2644 26.0931 53.3569C26.186 53.4494 26.2963 53.5227 26.4177 53.5725C26.539 53.6222 26.669 53.6476 26.8001 53.647H36.6941C36.8253 53.6476 36.9553 53.6222 37.0766 53.5725C37.1979 53.5227 37.3082 53.4494 37.4012 53.3569C37.4941 53.2644 37.5679 53.1544 37.6182 53.0333C37.6685 52.9121 37.6945 52.7823 37.6945 52.6511C37.6945 52.52 37.6685 52.3901 37.6182 52.269C37.5679 52.1479 37.4941 52.0379 37.4012 51.9454C37.3082 51.8528 37.1979 51.7796 37.0766 51.7298C36.9553 51.68 36.8253 51.6547 36.6941 51.6553V51.6553Z" fill="currentColor"/>
<path d="M34.0656 56.2933H29.4274C29.2954 56.2915 29.1645 56.316 29.0421 56.3652C28.9197 56.4145 28.8083 56.4876 28.7144 56.5802C28.6205 56.6729 28.546 56.7833 28.4951 56.905C28.4442 57.0267 28.418 57.1573 28.418 57.2892C28.418 57.4211 28.4442 57.5517 28.4951 57.6735C28.546 57.7952 28.6205 57.9056 28.7144 57.9982C28.8083 58.0909 28.9197 58.1639 29.0421 58.2132C29.1645 58.2624 29.2954 58.2869 29.4274 58.2851H34.0656C34.3274 58.2816 34.5773 58.1751 34.7612 57.9887C34.9451 57.8024 35.0482 57.551 35.0482 57.2892C35.0482 57.0274 34.9451 56.7761 34.7612 56.5897C34.5773 56.4033 34.3274 56.2968 34.0656 56.2933V56.2933Z" fill="currentColor"/>
<path d="M31.5631 12.1481C31.8272 12.1482 32.0805 12.0435 32.2674 11.857C32.4543 11.6705 32.5596 11.4174 32.5601 11.1533V8.2099C32.5589 7.94656 32.4534 7.69441 32.2668 7.50861C32.0802 7.32281 31.8276 7.21851 31.5642 7.21851C31.3009 7.21851 31.0482 7.32281 30.8616 7.50861C30.675 7.69441 30.5695 7.94656 30.5684 8.2099V11.1533C30.5684 11.2839 30.5941 11.4133 30.6441 11.534C30.6941 11.6547 30.7673 11.7643 30.8597 11.8567C30.9521 11.9491 31.0617 12.0224 31.1824 12.0724C31.3031 12.1224 31.4325 12.1481 31.5631 12.1481Z" fill="currentColor"/>
<path d="M15.4166 14.9352C15.3242 14.8427 15.2146 14.7692 15.0938 14.7191C14.9731 14.669 14.8437 14.6432 14.713 14.6431C14.449 14.6429 14.1957 14.7475 14.0089 14.9341C13.8221 15.1206 13.717 15.3737 13.7168 15.6377C13.7166 15.9017 13.8213 16.155 14.0078 16.3418L16.0691 18.4072C16.1613 18.5003 16.271 18.5743 16.3919 18.6249C16.5128 18.6755 16.6425 18.7017 16.7735 18.7021C16.9045 18.7024 17.0344 18.6769 17.1555 18.627C17.2767 18.577 17.3868 18.5037 17.4795 18.4111C17.5723 18.3185 17.6458 18.2085 17.6959 18.0874C17.746 17.9663 17.7717 17.8365 17.7716 17.7055C17.7714 17.5744 17.7454 17.4447 17.695 17.3237C17.6445 17.2028 17.5707 17.093 17.4778 17.0006L15.4166 14.9352Z" fill="currentColor"/>
<path d="M48.075 14.7556L45.6974 17.1418C45.6048 17.2343 45.5313 17.3443 45.4811 17.4653C45.431 17.5863 45.4052 17.716 45.4053 17.847C45.4053 17.978 45.4312 18.1077 45.4815 18.2287C45.5317 18.3496 45.6053 18.4595 45.6981 18.552C45.7909 18.6445 45.901 18.7178 46.0221 18.7677C46.1432 18.8175 46.273 18.843 46.404 18.8427C46.535 18.8424 46.6646 18.8162 46.7855 18.7657C46.9063 18.7152 47.016 18.6414 47.1083 18.5484L49.4858 16.16C49.578 16.0673 49.6511 15.9574 49.7008 15.8366C49.7506 15.7157 49.776 15.5862 49.7757 15.4555C49.7754 15.3248 49.7494 15.1954 49.6991 15.0747C49.6488 14.9541 49.5752 14.8445 49.4826 14.7523C49.3899 14.6601 49.28 14.587 49.1592 14.5373C49.0383 14.4876 48.9088 14.4621 48.7781 14.4624C48.6474 14.4627 48.518 14.4887 48.3973 14.539C48.2767 14.5893 48.1671 14.6629 48.0749 14.7556H48.075Z" fill="currentColor"/>
<path d="M12.1593 29.3401H9.2181C9.08694 29.3395 8.95697 29.3648 8.83563 29.4146C8.71429 29.4644 8.60398 29.5377 8.51103 29.6302C8.41809 29.7227 8.34433 29.8327 8.29401 29.9538C8.24368 30.0749 8.21777 30.2048 8.21777 30.3359C8.21777 30.4671 8.24368 30.597 8.29401 30.7181C8.34433 30.8392 8.41809 30.9492 8.51103 31.0417C8.60398 31.1342 8.71429 31.2075 8.83563 31.2573C8.95697 31.3071 9.08694 31.3324 9.2181 31.3318H12.1593C12.4226 31.3306 12.6748 31.2252 12.8605 31.0386C13.0463 30.8519 13.1507 30.5993 13.1507 30.3359C13.1507 30.0726 13.0463 29.82 12.8605 29.6333C12.6748 29.4467 12.4226 29.3413 12.1593 29.3401V29.3401Z" fill="currentColor"/>
<path d="M32.8147 16.9094C30.9193 16.7648 29.0145 17.0128 27.2194 17.6378C25.4242 18.2629 23.7773 19.2515 22.3816 20.542C20.9859 21.8325 19.8715 23.3971 19.108 25.1378C18.3445 26.8786 17.9484 28.7582 17.9443 30.6591C17.9937 32.5962 18.4329 34.5035 19.2358 36.2671C20.0386 38.0307 21.1887 39.6144 22.6172 40.9237C23.677 41.9337 24.57 46.1687 24.57 48.297C24.5699 48.4277 24.5957 48.5571 24.6457 48.6778C24.6956 48.7985 24.7689 48.9082 24.8613 49.0006C24.9537 49.093 25.0634 49.1663 25.1841 49.2163C25.3048 49.2663 25.4342 49.292 25.5648 49.292H37.6111C37.7418 49.2922 37.8712 49.2666 37.992 49.2166C38.1128 49.1667 38.2225 49.0934 38.3149 49.0009C38.4073 48.9085 38.4806 48.7988 38.5305 48.678C38.5804 48.5572 38.606 48.4277 38.6058 48.297C38.6058 46.1861 39.6418 42.055 40.9161 40.9519C42.3155 39.7405 43.4487 38.2523 44.2443 36.5811C45.04 34.91 45.4809 33.0922 45.5392 31.2422C45.6586 27.6778 44.405 24.2035 42.0372 21.5365C39.6695 18.8694 36.3682 17.2132 32.8147 16.9094V16.9094ZM39.6138 39.4456C37.8756 40.9499 36.8938 44.838 36.6661 47.3023H32.8059V38.4335L36.432 34.8053C36.6172 34.6185 36.7208 34.366 36.7203 34.1029C36.7197 33.8399 36.615 33.5878 36.429 33.4018C36.243 33.2158 35.9908 33.111 35.7278 33.1104C35.4648 33.1099 35.2122 33.2135 35.0254 33.3987L31.7462 36.6757L28.4669 33.3987C28.3746 33.3062 28.2649 33.2328 28.1442 33.1827C28.0234 33.1326 27.894 33.1067 27.7633 33.1066C27.6326 33.1065 27.5031 33.1321 27.3823 33.1821C27.2615 33.232 27.1517 33.3052 27.0592 33.3976C26.9667 33.49 26.8933 33.5996 26.8432 33.7204C26.793 33.8411 26.7672 33.9705 26.7671 34.1012C26.767 34.232 26.7926 34.3614 26.8426 34.4822C26.8925 34.603 26.9657 34.7128 27.0581 34.8053L30.8076 38.5548V47.3023H26.5098C26.3147 45.0158 25.5324 40.9519 23.9913 39.4826C22.7582 38.3589 21.7637 36.9988 21.0671 35.4829C20.3704 33.9671 19.9858 32.3266 19.9362 30.6591C19.9379 29.088 20.2531 27.5331 20.8632 26.0854C21.4734 24.6376 22.3662 23.3262 23.4895 22.2278C24.6128 21.1294 25.9439 20.2661 27.405 19.6886C28.866 19.111 30.4276 18.8308 31.9983 18.8642C33.569 18.8977 35.1173 19.2441 36.5524 19.8834C37.9876 20.5226 39.2807 21.4417 40.3562 22.5869C41.4318 23.7322 42.268 25.0804 42.8159 26.5528C43.3639 28.0252 43.6126 29.5922 43.5475 31.1619C43.4994 32.7394 43.125 34.2899 42.448 35.7156C41.771 37.1413 40.8059 38.4113 39.6138 39.4456V39.4456Z" fill="currentColor"/>
</svg>