<svg xmlns="http://www.w3.org/2000/svg" fill="currentColor" viewBox="0.8 0 640 66">
  <path d="M33.8162 0C15.6206 0 0.800049 14.6748 0.800049 32.854C0.800049 51.0332 15.5473 65.708 33.8162 65.708C52.0852 65.708 66.8324 51.0332 66.8324 32.854C66.8324 14.6748 52.0852 0 33.8162 0ZM1.90059 35.5553C1.82722 34.6792 1.75385 33.8031 1.75385 32.927C1.75385 31.2478 1.90059 29.5686 2.1207 27.9624L3.88156 26.1372L4.68862 31.1018L1.90059 35.5553ZM59.7889 24.75C59.2753 24.385 58.615 24.385 58.1748 24.75C55.9737 26.3562 50.1042 30.6637 49.8841 30.7367C49.3705 30.9558 48.4901 31.0288 47.9031 30.9558C44.308 32.854 68.8867 33.6571 55.6069 38.7677C49.9574 40.958 35.0635 43.3673 26.7728 49.281C18.9223 54.9027 21.5635 60.1593 27.2863 64.1018C19.5826 62.4956 12.8326 58.115 8.28371 52.0553C7.47665 41.9071 33.8896 39.7898 42.4738 38.5487C68.0796 34.8982 42.1803 33.365 47.3161 30.9558C47.2428 30.9558 47.1694 30.9558 47.0227 30.9558C46.9493 30.9558 46.7292 30.9558 46.6558 30.8827C46.5091 30.8827 41.2999 26.4292 39.3923 24.823C39.0254 24.458 38.4385 24.531 37.9983 24.823L36.751 25.9181L33.5227 22.7788C33.4494 22.7058 33.376 22.6327 33.2293 22.6327L30.8081 21.5376L29.5608 20.1504C29.4874 20.0774 29.3407 20.0044 29.2673 19.9314L26.9195 19.2013C26.4793 19.0553 25.9657 19.1283 25.5255 19.3473L22.2239 21.0996L14.7402 15.4779C14.1533 15.0398 13.4196 15.1128 12.906 15.6239C12.906 15.6239 6.08263 22.1947 2.70765 25.4801C6.08263 11.4624 18.7021 1.02212 33.8162 1.02212C49.0036 1.02212 61.6965 11.5354 64.9981 25.6261C64.7047 25.5531 64.3378 25.5531 64.0443 25.6991L61.99 26.5022L59.7889 24.75ZM60.2291 30.0066L57.5145 28.2544L55.3868 28.0354L59.0552 25.1881L60.2291 30.0066ZM5.27557 24.896L13.6397 16.573L16.4277 25.3341L14.7402 30.2257L5.27557 24.896ZM23.4711 22.1217L26.4793 20.0774L29.1206 24.823L30.0744 28.3274L23.4711 22.1217ZM37.558 26.4292L38.8053 25.3341L41.0798 28.6925L37.558 26.4292ZM64.9248 26.6482L65.2916 26.8673C65.4384 27.7434 65.5851 28.6195 65.6585 29.5686L63.2373 27.1593L64.9248 26.6482Z" fill="currentColor"/>
  <path d="M637.498 56.6549C639.406 56.6549 640.8 58.1151 640.8 60.0864C640.8 62.0576 639.406 63.5178 637.498 63.5178C635.591 63.5178 634.197 62.0576 634.197 60.0864C634.197 58.1151 635.591 56.6549 637.498 56.6549ZM637.498 62.9337C639.186 62.9337 640.286 61.6926 640.286 60.0864C640.286 58.4802 639.186 57.239 637.498 57.239C635.811 57.239 634.71 58.4802 634.71 60.0864C634.71 61.6926 635.811 62.9337 637.498 62.9337ZM637.352 60.3054H636.838V61.9116H636.325V58.1881H637.572C638.305 58.1881 638.746 58.6262 638.746 59.2833C638.746 59.7943 638.379 60.2324 637.865 60.3054L638.966 61.9116H638.452L637.352 60.3054ZM636.838 58.6262V59.8673H637.572C638.012 59.8673 638.232 59.6483 638.232 59.2833C638.232 58.9182 638.012 58.6992 637.572 58.6992H636.838V58.6262Z" fill="currentColor"/>
  <path d="M127.362 47.2367C127.362 57.969 118.925 64.9049 107.112 64.9049H85.1013V1.38717H104.618C116.87 1.38717 124.647 8.17699 124.647 18.4712C124.647 24.385 121.419 29.2035 116.65 31.5398C122.446 33.6571 127.362 39.5708 127.362 47.2367ZM110.414 29.4956C114.522 28.4735 117.751 24.677 117.751 18.8363C117.751 11.5354 112.908 6.93584 104.838 6.93584H91.7045V29.4956H110.414ZM91.7045 59.2832H106.965C114.889 59.2832 120.465 54.4646 120.465 46.8717C120.465 39.6438 115.476 34.7522 108.946 34.7522H91.7779V59.2832H91.7045ZM164.854 0.292035H165L193.981 64.9049H186.864L180.041 49.573H149.593L142.916 64.9049H135.726L164.854 0.292035ZM177.62 43.9513C172.998 33.4381 169.036 24.3119 164.927 14.3097C160.818 24.3119 156.856 33.4381 152.234 43.9513H177.62ZM251.87 11.4624C247.247 9.0531 240.497 6.49779 232.574 6.49779C217.093 6.49779 206.087 17.9602 206.087 33.073C206.087 48.1858 217.093 59.6482 232.574 59.6482C240.938 59.6482 247.761 57.0929 252.31 54.8296V61.2544C249.228 63.0066 242.112 65.927 232.574 65.927C213.424 65.927 199.264 51.6903 199.264 33.073C199.264 14.5288 213.424 0.219027 232.574 0.219027C241.818 0.219027 248.788 3.21239 251.87 4.9646V11.4624ZM292.149 27.0133L316.508 64.8319H308.511L287.6 31.7588L274.467 46.1416V64.8319H267.717V1.31416H274.467V37.9646L307.19 1.31416H315.627L292.149 27.0133ZM349.597 1.31416C363.097 1.31416 371.315 8.39602 371.315 20.2235C371.315 29.8606 365.298 36.1394 357.301 38.0376L372.269 64.8319H364.711L350.625 38.9867H336.097V64.8319H329.348V1.31416H349.597ZM336.097 7.00885V33.5111H349.744C358.989 33.5111 364.491 28.5465 364.491 20.2965C364.491 12.1195 358.842 7.08186 349.304 7.08186H336.097V7.00885ZM416.07 0.292035C434.412 0.292035 448.499 14.7478 448.499 33.146C448.499 51.6173 434.559 66 416.07 66C397.654 66 383.641 51.6173 383.641 33.146C383.641 14.9668 397.654 0.292035 416.07 0.292035ZM416.07 59.6482C430.964 59.6482 441.602 48.1858 441.602 33.073C441.602 17.9602 430.964 6.5708 416.07 6.5708C401.249 6.5708 390.464 18.0332 390.464 33.146C390.464 48.2588 401.323 59.6482 416.07 59.6482ZM483.716 0.292035H483.863L512.844 64.9049H505.727L498.904 49.573H468.456L461.779 64.9049H454.589L483.716 0.292035ZM496.483 43.9513C491.86 33.4381 487.898 24.3119 483.79 14.3097C479.681 24.3119 475.719 33.4381 471.097 43.9513H496.483ZM525.757 64.9049V1.38717H543.366C562.442 1.38717 577.042 13.5796 577.042 33.146C577.042 52.7124 562.588 64.9049 543.732 64.9049H525.757ZM532.507 59.2102H543.732C558.7 59.2102 570.145 49.0619 570.145 33.073C570.145 17.0841 558.626 6.93584 543.292 6.93584H532.507V59.2102ZM588.561 62.1305V55.4137C592.743 57.458 599.273 59.7942 606.316 59.7942C614.681 59.7942 621.064 56.0708 621.064 49.646C621.064 43.2212 617.615 39.7898 606.316 35.7743C593.624 31.2478 588.414 25.9181 588.414 16.719C588.414 6.20575 597.439 0.219027 608.884 0.219027C615.267 0.219027 621.064 1.97124 624.365 3.50442V10.0022C620.917 8.25 614.754 6.27876 609.105 6.27876C600.961 6.27876 595.018 10.2212 595.018 16.427C595.018 22.1947 598.099 26.1372 609.545 30.2987C622.311 34.8252 627.667 39.9358 627.667 49.208C627.667 59.7212 619.156 65.854 606.683 65.854C599.273 65.927 592.596 63.9557 588.561 62.1305Z" fill="currentColor"/>
</svg>