<svg xmlns="http://www.w3.org/2000/svg" fill="#currentColor" viewBox="0 45 198.42 46.78">
  <path d="M62.6101 54.17H57.4001V82.24H62.6101V54.17Z" fill="#currentColor"/>
  <path d="M78.6501 60.58C75.5201 60.58 72.9101 61.62 71.2701 63.59V60.82H66.5001V82.24H71.5101V71.41C71.5101 67.12 73.9201 64.95 77.4901 64.95C80.7001 64.95 82.5801 66.79 82.5801 70.61V82.24H87.5901V69.97C87.6001 63.51 83.7901 60.58 78.6501 60.58Z" fill="#currentColor"/>
  <path d="M100.23 78.39C98.3001 78.39 97.2601 77.27 97.2601 75.18V64.99H103V60.98H97.2601V55.84H92.2501V60.98H88.7201V64.99H92.2501V75.3C92.2501 80.03 94.9401 82.52 99.6301 82.52C101.44 82.52 103.24 82.04 104.44 81.08L103.04 77.51C102.28 78.11 101.28 78.39 100.23 78.39Z" fill="#currentColor"/>
  <path d="M110.94 63.95V60.82H106.17V82.24H111.18V71.85C111.18 67.48 113.59 65.23 117.4 65.23C117.76 65.23 118.12 65.27 118.56 65.35V60.58C114.99 60.58 112.39 61.7 110.94 63.95Z" fill="#currentColor"/>
  <path d="M129.92 60.58C123.54 60.58 118.85 65.15 118.85 71.53C118.85 77.91 123.5 82.52 130.68 82.52C134.37 82.52 137.38 81.32 139.3 79.03L136.61 75.94C135.09 77.5 133.2 78.27 130.79 78.27C127.06 78.27 124.45 76.26 123.85 73.14H140.66C140.7 72.66 140.74 72.06 140.74 71.66C140.74 64.95 136.17 60.58 129.92 60.58ZM123.82 69.81C124.3 66.68 126.67 64.6 129.92 64.6C133.21 64.6 135.58 66.73 135.98 69.81H123.82Z" fill="#currentColor"/>
  <path d="M155.03 60.58C152.1 60.58 149.61 61.58 147.93 63.63V60.82H143.16V90.02H148.17V79.63C149.89 81.6 152.3 82.52 155.03 82.52C161.29 82.52 165.9 78.19 165.9 71.53C165.9 64.91 161.28 60.58 155.03 60.58ZM154.46 78.23C150.85 78.23 148.08 75.62 148.08 71.53C148.08 67.44 150.85 64.83 154.46 64.83C158.07 64.83 160.8 67.44 160.8 71.53C160.8 75.62 158.07 78.23 154.46 78.23Z" fill="#currentColor"/>
  <path d="M170.79 51.52C168.95 51.52 167.58 52.84 167.58 54.53C167.58 56.21 168.94 57.54 170.79 57.54C172.67 57.54 174 56.18 174 54.41C174 52.76 172.64 51.52 170.79 51.52Z" fill="#currentColor"/>
  <path d="M173.27 60.82H168.26V82.24H173.27V60.82Z" fill="#currentColor"/>
  <path d="M193.41 52.48V63.47C191.73 61.5 189.28 60.58 186.51 60.58C180.29 60.58 175.68 64.87 175.68 71.53C175.68 78.19 180.29 82.52 186.51 82.52C189.44 82.52 191.92 81.52 193.61 79.47V82.24H198.42V52.48H193.41ZM187.12 78.23C183.51 78.23 180.74 75.62 180.74 71.53C180.74 67.44 183.51 64.83 187.12 64.83C190.73 64.83 193.5 67.44 193.5 71.53C193.49 75.62 190.72 78.23 187.12 78.23Z" fill="#currentColor"/>
  <path d="M41.0201 53.28C41.3001 55.07 41.5001 56.82 41.6601 58.37C41.6701 58.43 41.6901 58.49 41.7201 58.55C43.3301 61.54 44.1901 64.9 44.1901 68.39C44.1901 70 44.0101 71.59 43.6501 73.12C43.1801 72.3 42.5801 71.57 41.8601 70.96V69.32C41.8601 68.8 41.4401 68.38 40.9201 68.38H40.1401C40.0101 68.38 39.9101 68.28 39.9101 68.15V66.44H40.4601C40.7201 66.44 40.9301 66.23 40.9301 65.97V64.33C40.9301 64.07 40.7201 63.86 40.4601 63.86H39.9001C39.7901 60.33 39.0001 50.9 36.8201 45.24C36.7601 45.08 36.5401 45.08 36.4801 45.24C34.3001 50.9 33.5101 60.33 33.4101 63.87H32.8501C32.5901 63.87 32.3801 64.08 32.3801 64.34V65.98C32.3801 66.24 32.5901 66.45 32.8501 66.45H33.4001V68.16C33.4001 68.29 33.3001 68.39 33.1701 68.39H32.3901C31.8701 68.39 31.4501 68.81 31.4501 69.33V70.97C29.7101 72.45 28.6101 74.64 28.6101 77.1V79.67H27.7601C27.5001 79.67 27.2901 79.88 27.2901 80.14V82.01C27.2901 82.14 27.1901 82.24 27.0601 82.24H24.9301C24.8001 82.24 24.7001 82.14 24.7001 82.01V72.08C26.1401 71.57 27.2001 70.24 27.3001 68.64C27.3101 68.51 27.2001 68.4 27.0701 68.4H24.9401C24.8101 68.4 24.7101 68.3 24.7101 68.17C24.7101 64.62 24.6801 57.51 23.5801 54.15C23.5301 53.98 23.2901 53.98 23.2301 54.15C22.1301 57.51 22.1001 64.62 22.1001 68.17C22.1001 68.3 22.0001 68.4 21.8701 68.4H19.7401C19.6101 68.4 19.5001 68.51 19.5101 68.64C19.6101 70.24 20.6601 71.57 22.1101 72.08V82.01C22.1101 82.14 22.0101 82.24 21.8801 82.24H19.7501C19.6201 82.24 19.5201 82.14 19.5201 82.01V80.14C19.5201 79.88 19.3101 79.67 19.0501 79.67H18.2001V77.29C18.2001 77.16 18.1801 77.04 18.1301 76.92C16.6301 73.42 13.1501 70.96 9.10006 70.96C6.86006 70.96 4.79006 71.71 3.14006 72.98C2.76006 71.29 2.59006 69.55 2.64006 67.77C2.79006 62.66 4.83006 57.76 8.36006 54.06C12.3901 49.83 17.8701 47.53 23.7001 47.6C26.8201 47.64 29.8801 48.39 32.6401 49.76C32.7801 49.83 32.9501 49.75 32.9801 49.6C33.1301 48.87 33.3001 48.16 33.4801 47.46C33.5101 47.36 33.4601 47.25 33.3601 47.21C30.3201 45.8 26.9601 45 23.4101 45C10.5201 44.99 -0.0299362 55.56 6.38231e-05 68.46C0.0400638 81.6 10.9101 92.19 24.1601 91.77C36.5601 91.37 46.5701 81.21 46.7801 68.8C46.8801 62.84 44.7601 57.39 41.1801 53.2C41.1201 53.13 41.0001 53.19 41.0201 53.28Z" fill="#currentColor"/>
</svg>