<svg xmlns="http://www.w3.org/2000/svg" class="logo-svg" viewBox="0 0.15 179.37 38.3"><defs><style>.cls-1{fill:#212121;}.cls-2{fill:#fff;}.cls-3{fill:#382f2d;}.cls-4{fill:#212121;}</style></defs><g id="Layer_2" data-name="Layer 2"><g id="Layer_1-2" data-name="Layer 1"><path class="cls-1" d="M11.56,26.88a19.25,19.25,0,0,0,7-1.13,20,20,0,0,1,7.27-1.2,20.09,20.09,0,0,1,7.28,1.2,20.23,20.23,0,0,0,3.85.95A19.21,19.21,0,1,0,0,19.21a19.41,19.41,0,0,0,.82,5.58,20.41,20.41,0,0,1,3.79,1A19.2,19.2,0,0,0,11.56,26.88Z"/><path class="cls-1" d="M11.56,29.87a19,19,0,0,0,7-1.14,20.29,20.29,0,0,1,7.27-1.19,20.36,20.36,0,0,1,7.28,1.19,23.77,23.77,0,0,0,2.41.7,16.5,16.5,0,0,0,1-1.74,21.07,21.07,0,0,1-3.72-1,19.12,19.12,0,0,0-6.95-1.14,19.21,19.21,0,0,0-7,1.14,20,20,0,0,1-7.27,1.19,20.13,20.13,0,0,1-7.28-1.19,21.67,21.67,0,0,0-3.08-.83A19.92,19.92,0,0,0,2.14,28c.92.21,1.7.46,2.47.71A19,19,0,0,0,11.56,29.87Z"/><path class="cls-1" d="M18.83,33a20.25,20.25,0,0,1-7.27,1.19,20.54,20.54,0,0,1-5-.53A19.19,19.19,0,0,0,32.63,33a19,19,0,0,0-6.85-1.1A19,19,0,0,0,18.83,33Z"/><path class="cls-1" d="M32.73,29.73a18.91,18.91,0,0,0-6.95-1.14,19,19,0,0,0-7,1.14,20.25,20.25,0,0,1-7.27,1.19,20.36,20.36,0,0,1-7.28-1.19c-.47-.16-.94-.31-1.43-.45A18.38,18.38,0,0,0,5,32.11a18.68,18.68,0,0,0,6.58,1,19,19,0,0,0,7-1.14,20.29,20.29,0,0,1,7.27-1.19A20.36,20.36,0,0,1,33.06,32l.38.13a19.75,19.75,0,0,0,1.41-1.76C34.08,30.17,33.4,30,32.73,29.73Z"/><path class="cls-2" d="M11.56,27.93a20,20,0,0,0,7.27-1.19,19.21,19.21,0,0,1,7-1.14,19.12,19.12,0,0,1,6.95,1.14,21.07,21.07,0,0,0,3.72,1c.16-.33.32-.66.46-1a20.23,20.23,0,0,1-3.85-.95,20.09,20.09,0,0,0-7.28-1.2,20,20,0,0,0-7.27,1.2,19.25,19.25,0,0,1-7,1.13,19.2,19.2,0,0,1-6.95-1.13,20.41,20.41,0,0,0-3.79-1c.12.38.24.75.38,1.12a21.67,21.67,0,0,1,3.08.83A20.13,20.13,0,0,0,11.56,27.93Z"/><path class="cls-2" d="M11.56,30.92a20.25,20.25,0,0,0,7.27-1.19,19,19,0,0,1,7-1.14,18.91,18.91,0,0,1,6.95,1.14c.67.22,1.35.44,2.12.63.22-.3.43-.61.62-.93a23.77,23.77,0,0,1-2.41-.7,20.36,20.36,0,0,0-7.28-1.19,20.29,20.29,0,0,0-7.27,1.19,19,19,0,0,1-7,1.14,19,19,0,0,1-6.95-1.14c-.77-.25-1.55-.5-2.47-.71.22.43.46.85.71,1.26.49.14,1,.29,1.43.45A20.36,20.36,0,0,0,11.56,30.92Z"/><path class="cls-2" d="M25.78,30.8A20.29,20.29,0,0,0,18.51,32a19,19,0,0,1-7,1.14,18.68,18.68,0,0,1-6.58-1,17.54,17.54,0,0,0,1.57,1.54,20.54,20.54,0,0,0,5,.53A20.25,20.25,0,0,0,18.83,33a19,19,0,0,1,7-1.14A19,19,0,0,1,32.63,33c.28-.27.55-.55.81-.83L33.06,32A20.36,20.36,0,0,0,25.78,30.8Z"/><path class="cls-2" d="M30.36,22.16,25,10.08a.52.52,0,0,0-.48-.31h0a.54.54,0,0,0-.48.31l-1.26,2.86L19.68,5.86a.52.52,0,0,0-.47-.32h0a.52.52,0,0,0-.47.32l-3.14,7.08-1.26-2.86a.53.53,0,0,0-.48-.31h0a.52.52,0,0,0-.48.31L8,22.21a.54.54,0,0,0,.27.69A.54.54,0,0,0,9,22.63l4.89-11L15,14.24l-3.53,8a.52.52,0,0,0,.48.73.54.54,0,0,0,.48-.31l3.14-7.09,3.12,7.06a.52.52,0,0,0,.47.32h0a.53.53,0,0,0,.48-.31l3.14-7.08,3.12,7.07a.52.52,0,0,0,.69.26.53.53,0,0,0,.27-.69l-3.5-7.94,1.17-2.64,4.86,11a.52.52,0,1,0,.95-.42ZM19.19,21.1l-3-6.86,3-6.87,3,6.86Z"/><path class="cls-3" d="M67.39,8l-2,.51v9.84l2.21.62v.34l-.09,1.1H60.07v-.32l.09-1.27L62,18.35l.21-8.23h-.1L57.7,18.67H56.59l-4.35-8.55h-.1l.53,8.23,2.1.62v.34l-.09,1.1H48.34v-.32l.08-1.27,1.93-.47V8.51l-2-.47V7.72l.08-1.27h5.86L58,13.87l3.66-7.42h5.79v.32Z"/><path class="cls-3" d="M73.46,20.41v-.32l.09-1.27,1.93-.47v-10l-2.4.13L72,11.58H70.13l.17-5.13H84.12l.17,5.13H82.46L81.34,8.44l-2.4-.13v10l2.21.62v.34l-.09,1.1Z"/><path class="cls-3" d="M93.69,14.77h2q1.68,4.15,4.57,4.16a2.55,2.55,0,0,0,1.59-.37,2.2,2.2,0,0,0,.42-1.5,1.72,1.72,0,0,0-.44-1.34,11.46,11.46,0,0,0-3.1-1.14A10.31,10.31,0,0,1,95,13a3.23,3.23,0,0,1-1.08-2.59,3.83,3.83,0,0,1,1.85-3.16,5.9,5.9,0,0,1,3.48-1.06,6.28,6.28,0,0,1,1.87.28,2.86,2.86,0,0,1,1.35.74h.17l.21-1h1.85l.17,5h-2a5.88,5.88,0,0,0-1.61-2.39A3.34,3.34,0,0,0,99,7.89a2.33,2.33,0,0,0-1.44.34,1.67,1.67,0,0,0-.42,1.23,1.59,1.59,0,0,0,.4,1.21,9,9,0,0,0,2.84,1.1A14.32,14.32,0,0,1,103.68,13a3.4,3.4,0,0,1,1.81,3.14,4,4,0,0,1-.48,2.08,5.17,5.17,0,0,1-1.6,1.55,6,6,0,0,1-3.36.91,5.69,5.69,0,0,1-3.94-1.36h-.19l-.39,1.12H94Z"/><path class="cls-3" d="M120.46,8a6.77,6.77,0,0,1,2.09,5.32,7.05,7.05,0,0,1-.75,3.43,8,8,0,0,1-2.39,2.54,8.61,8.61,0,0,1-10.13-.52,7.19,7.19,0,0,1-2-5.45,6.56,6.56,0,0,1,.73-3.19,7.35,7.35,0,0,1,2.37-2.47A8.35,8.35,0,0,1,120.46,8Zm-8.31.89a4.39,4.39,0,0,0-.94,1.74,8.42,8.42,0,0,0-.4,2.72,5.73,5.73,0,0,0,1.26,3.86,3.85,3.85,0,0,0,3,1.46,3.74,3.74,0,0,0,2.48-.7,4.12,4.12,0,0,0,1-1.69,8.45,8.45,0,0,0,.47-2.93,5.53,5.53,0,0,0-1.24-3.81,4.35,4.35,0,0,0-5.62-.65Z"/><path class="cls-3" d="M131,6.45a10.12,10.12,0,0,1,4.74.84,2.85,2.85,0,0,1,1.5,2.7,2.5,2.5,0,0,1-.79,1.93c-.25.16-.64.38-1.14.66v.06a4,4,0,0,1,2.1,1.34,3.29,3.29,0,0,1,.72,2.06,4.14,4.14,0,0,1-.46,2A4.16,4.16,0,0,1,136,19.6a8.91,8.91,0,0,1-4.29.81h-7.32v-.32l.08-1.27,1.93-.47V8.51l-2-.47V7.72l.08-1.27Zm1.55,5.85.57,0a2.55,2.55,0,0,0,.81-2.06,1.74,1.74,0,0,0-.77-1.64,6.35,6.35,0,0,0-2.52-.32h-.77v4ZM129.89,14v4.52h1.81a5.37,5.37,0,0,0,2.46-.32,2.4,2.4,0,0,0,.34-.76,3.91,3.91,0,0,0,.19-1.23,2,2,0,0,0-.66-1.61,2.92,2.92,0,0,0-2-.6Z"/><path class="cls-3" d="M146.21,14.21v4.23h4.95l1.23-2.85h1.93l-.17,4.82H140.74v-.32l.08-1.27,1.93-.47V8.51l-2-.47V7.72l.08-1.27h12.84l.13,4.39h-1.91l-1.17-2.42h-4.48v3.93h2.19l.66-1.28h1.44v4.76H149l-.65-1.62Z"/><path class="cls-3" d="M166.14,20.09l.08-1.12,1-.32v0l-3.48-4.37h-1.25v4.11l2.21.62v.34l-.09,1.1H157v-.32l.09-1.27,1.93-.47V8.51L157,8V7.72l.09-1.27h7.23v.32L164.23,8l-1.74.51v3.75h2.14l2.83-3.67V8.51L165.84,8V7.72l.09-1.27h6.64v.32L172.48,8l-1.95.51-3.86,4.09,4.58,5.75,2,.62v.34l-.09,1.1h-7Z"/><polygon class="cls-3" points="88.83 15.76 88.26 14.46 86.96 13.89 88.26 13.33 88.83 12.03 89.4 13.33 90.7 13.89 89.4 14.46 88.83 15.76"/><path class="cls-3" d="M175.69,6.72v2h-.34v-2h-.68V6.46h1.7v.26Z"/><path class="cls-3" d="M179.05,8.74,179,6.86l-.67,1.88H178l-.67-1.88-.05,1.88H177l.08-2.28h.45l.66,1.86.65-1.86h.45l.08,2.28Z"/><path class="cls-4" d="M52.36,26.05v1H50.8v5.14h-1V27H48.27v-1Z"/><path class="cls-4" d="M55,28.05a1.13,1.13,0,0,1,1,.42,1.86,1.86,0,0,1,.33,1.18v2.52h-.88V29.73c0-.53-.21-.8-.63-.8a.75.75,0,0,0-.65.33,1.46,1.46,0,0,0-.23.84v2.07H53V25.69h.89v2.39c0,.25,0,.45,0,.61A1.21,1.21,0,0,1,55,28.05Z"/><path class="cls-4" d="M59,28.05a1.48,1.48,0,0,1,1.21.53A2.19,2.19,0,0,1,60.62,30c0,.09,0,.25,0,.47H58a1.2,1.2,0,0,0,.4.73,1.17,1.17,0,0,0,.76.26,1.34,1.34,0,0,0,1-.38l.37.63a2.09,2.09,0,0,1-1.41.56,1.83,1.83,0,0,1-1.42-.6,2.19,2.19,0,0,1-.54-1.54,2.23,2.23,0,0,1,.52-1.5A1.73,1.73,0,0,1,59,28.05Zm0,.8a.88.88,0,0,0-.63.25,1.27,1.27,0,0,0-.33.72h1.79a1.11,1.11,0,0,0-.24-.72A.76.76,0,0,0,59,28.85Z"/><path class="cls-4" d="M65.61,26l2.6,6.13v0h-1l-.46-1.11H64.17l-.46,1.11h-1v0L65.31,26Zm-.15,1.71c-.12.37-.24.72-.37,1.05l-.61,1.45h2l-.61-1.45C65.72,28.48,65.6,28.14,65.46,27.72Z"/><path class="cls-4" d="M71.42,25.69h.89v6.48H71.7l-.15-.6a1.5,1.5,0,0,1-1.31.7A1.56,1.56,0,0,1,69,31.68a2.39,2.39,0,0,1-.48-1.55A2.23,2.23,0,0,1,69,28.64a1.57,1.57,0,0,1,1.26-.58,1.48,1.48,0,0,1,1.21.57c0-.36,0-.75,0-1.15Zm-1,5.72a.93.93,0,0,0,.76-.34,1.56,1.56,0,0,0,0-1.81.93.93,0,0,0-.76-.34.91.91,0,0,0-.74.34,1.37,1.37,0,0,0-.29.9,1.4,1.4,0,0,0,.29.91A.91.91,0,0,0,70.41,31.41Z"/><path class="cls-4" d="M75.74,28.15h1v0L75,32.2h-.39l-1.71-4v0h1l.71,1.8a5.11,5.11,0,0,1,.23.76A4.63,4.63,0,0,1,75,30Z"/><path class="cls-4" d="M78.76,28.05a1.48,1.48,0,0,1,1.21.53A2.14,2.14,0,0,1,80.41,30c0,.09,0,.25,0,.47h-2.6a1.14,1.14,0,0,0,.39.73,1.17,1.17,0,0,0,.76.26,1.34,1.34,0,0,0,1-.38l.38.63a2.09,2.09,0,0,1-1.42.56,1.81,1.81,0,0,1-1.41-.6,2.15,2.15,0,0,1-.55-1.54,2.24,2.24,0,0,1,.53-1.5A1.71,1.71,0,0,1,78.76,28.05Zm0,.8a.85.85,0,0,0-.63.25,1.21,1.21,0,0,0-.33.72h1.79a1.17,1.17,0,0,0-.25-.72A.74.74,0,0,0,78.75,28.85Z"/><path class="cls-4" d="M83.2,28.05a1.13,1.13,0,0,1,1,.42,1.85,1.85,0,0,1,.33,1.19v2.51h-.89V29.75c0-.55-.2-.82-.61-.82a.78.78,0,0,0-.65.29,1.12,1.12,0,0,0-.24.74v2.21H81.2v-4h.6l.18.63A1.35,1.35,0,0,1,83.2,28.05Z"/><path class="cls-4" d="M86.78,32.26a1,1,0,0,1-.79-.33,1.48,1.48,0,0,1-.29-1V29l-.64,0v-.79h.64l0-1.28h.86v1.28h1.12V29H86.59v1.86c0,.34.13.51.4.51a1,1,0,0,0,.61-.21l.28.74A1.87,1.87,0,0,1,86.78,32.26Z"/><path class="cls-4" d="M90.73,28.15h.89v4H91l-.18-.62a1.26,1.26,0,0,1-1.16.7,1.15,1.15,0,0,1-1-.43,1.88,1.88,0,0,1-.34-1.18V28.15h.9v2.4c0,.54.21.82.63.82a.72.72,0,0,0,.63-.33,1.36,1.36,0,0,0,.22-.81Z"/><path class="cls-4" d="M94.48,28.07a1.1,1.1,0,0,1,.63.17l-.23.82a1.27,1.27,0,0,0-.47-.09.8.8,0,0,0-.63.27,1.08,1.08,0,0,0-.24.74v2.19h-.88v-4h.6l.17.6A1.09,1.09,0,0,1,94.48,28.07Z"/><path class="cls-4" d="M97.16,28.05a1.48,1.48,0,0,1,1.21.53A2.19,2.19,0,0,1,98.81,30c0,.09,0,.25,0,.47H96.17a1.2,1.2,0,0,0,.4.73,1.17,1.17,0,0,0,.76.26,1.34,1.34,0,0,0,1-.38l.37.63a2.07,2.07,0,0,1-1.41.56,1.83,1.83,0,0,1-1.42-.6,2.19,2.19,0,0,1-.54-1.54,2.23,2.23,0,0,1,.52-1.5A1.74,1.74,0,0,1,97.16,28.05Zm0,.8a.88.88,0,0,0-.63.25,1.27,1.27,0,0,0-.33.72H98a1.11,1.11,0,0,0-.24-.72A.75.75,0,0,0,97.14,28.85Z"/><path class="cls-4" d="M104,32.29a2.61,2.61,0,0,1-2.06-.92,3.34,3.34,0,0,1-.79-2.27,3.24,3.24,0,0,1,.81-2.27,2.65,2.65,0,0,1,2.06-.9,2.83,2.83,0,0,1,2.08.9l-.49.72a2.1,2.1,0,0,0-1.56-.66,1.73,1.73,0,0,0-1.38.62,2.32,2.32,0,0,0-.54,1.59,2.4,2.4,0,0,0,.53,1.59,1.68,1.68,0,0,0,1.35.63,1.86,1.86,0,0,0,1.61-.86l.61.68A2.65,2.65,0,0,1,104,32.29Z"/><path class="cls-4" d="M110.06,31.69a1.84,1.84,0,0,1-1.41.6,1.82,1.82,0,0,1-1.4-.6,2.42,2.42,0,0,1,0-3.05,1.81,1.81,0,0,1,1.4-.59,1.83,1.83,0,0,1,1.41.59,2.18,2.18,0,0,1,.55,1.52A2.21,2.21,0,0,1,110.06,31.69Zm-1.41-.28a.93.93,0,0,0,.76-.34,1.34,1.34,0,0,0,.29-.91,1.32,1.32,0,0,0-.29-.9,1,1,0,0,0-1.51,0,1.36,1.36,0,0,0-.3.9,1.32,1.32,0,0,0,.3.9A.9.9,0,0,0,108.65,31.41Z"/><path class="cls-4" d="M115.62,28.05a1.08,1.08,0,0,1,.92.41,1.75,1.75,0,0,1,.33,1.13v2.58H116V29.69a.87.87,0,0,0-.16-.56.5.5,0,0,0-.42-.2.69.69,0,0,0-.61.32,1.39,1.39,0,0,0-.21.77v2.15h-.88V29.68a1,1,0,0,0-.15-.54.51.51,0,0,0-.44-.21.68.68,0,0,0-.6.32,1.39,1.39,0,0,0-.21.77v2.15h-.88v-4h.6l.18.64a1.23,1.23,0,0,1,1.15-.74,1.08,1.08,0,0,1,1.09.71A1.27,1.27,0,0,1,115.62,28.05Z"/><path class="cls-4" d="M120,28.06a1.52,1.52,0,0,1,1.24.59,2.25,2.25,0,0,1,.5,1.49,2.34,2.34,0,0,1-.49,1.53,1.61,1.61,0,0,1-2.47,0c0,.19,0,.5,0,.95v1.49h-.89v-6h.6l.17.62A1.52,1.52,0,0,1,120,28.06Zm-.18,3.35a.9.9,0,0,0,.73-.34,1.59,1.59,0,0,0,0-1.8.88.88,0,0,0-.73-.35,1,1,0,0,0-.77.34,1.58,1.58,0,0,0,0,1.81A.94.94,0,0,0,119.77,31.41Z"/><path class="cls-4" d="M123.88,28.08a1.49,1.49,0,0,1,1.1.39,1.47,1.47,0,0,1,.4,1.11v2.59h-.6l-.16-.6a1.44,1.44,0,0,1-1.29.68,1.16,1.16,0,0,1-.83-.3,1.09,1.09,0,0,1-.31-.83,1.21,1.21,0,0,1,.49-1A2.21,2.21,0,0,1,124,29.7l.45,0v-.18c0-.41-.24-.62-.74-.62a2.53,2.53,0,0,0-1.13.32l-.25-.74A3.36,3.36,0,0,1,123.88,28.08Zm-.29,3.43a.82.82,0,0,0,.65-.3,1.37,1.37,0,0,0,.27-.85l-.43,0a1.28,1.28,0,0,0-.74.18.58.58,0,0,0-.27.52C123.07,31.35,123.24,31.51,123.59,31.51Z"/><path class="cls-4" d="M128.37,28.05a1.14,1.14,0,0,1,.95.42,1.85,1.85,0,0,1,.33,1.19v2.51h-.89V29.75c0-.55-.2-.82-.62-.82a.77.77,0,0,0-.64.29,1.12,1.12,0,0,0-.24.74v2.21h-.89v-4h.6l.18.63A1.35,1.35,0,0,1,128.37,28.05Z"/><path class="cls-4" d="M132.94,28.15h.93v0l-2.14,6h-.94v0l.8-2.06L130,28.18v0h1l.77,2.06A6.31,6.31,0,0,1,132,31c0-.2.12-.46.22-.78Z"/><path class="cls-4" d="M138,33.66V25.52h.8v8.14Z"/><path class="cls-4" d="M144.66,31.23h2.59v.94H143.7V26.05h3.48V27h-2.52V28.6h2.2v.91h-2.2Z"/><path class="cls-4" d="M149.15,32.26a2.43,2.43,0,0,1-1.41-.44l.35-.7a1.67,1.67,0,0,0,1,.34.62.62,0,0,0,.39-.11.37.37,0,0,0,0-.56,1.12,1.12,0,0,0-.23-.18l-.36-.16a2.17,2.17,0,0,1-.75-.49,1,1,0,0,1-.27-.74,1,1,0,0,1,.37-.83,1.39,1.39,0,0,1,.91-.3,2.16,2.16,0,0,1,1.19.36l-.31.66a1.57,1.57,0,0,0-.8-.24c-.35,0-.52.12-.52.35a.4.4,0,0,0,.17.31,2,2,0,0,0,.49.25,2.57,2.57,0,0,1,.81.51,1,1,0,0,1,.28.75,1.11,1.11,0,0,1-.37.89A1.39,1.39,0,0,1,149.15,32.26Z"/><path class="cls-4" d="M152.58,32.26a1,1,0,0,1-.8-.33,1.48,1.48,0,0,1-.29-1V29l-.64,0v-.79h.64l0-1.28h.86v1.28h1.12V29h-1.12v1.86c0,.34.13.51.4.51a1,1,0,0,0,.61-.21l.28.74A1.84,1.84,0,0,1,152.58,32.26Z"/><path class="cls-4" d="M155.32,32.11a.58.58,0,0,1-.82,0,.6.6,0,0,1-.17-.45.63.63,0,0,1,.17-.47.61.61,0,0,1,.82,0,.63.63,0,0,1,.17.47A.6.6,0,0,1,155.32,32.11Z"/><path class="cls-4" d="M159.66,26.16h.52v6h-.94V28c0-.09,0-.22,0-.42l-.18.13-.74.47-.38-.78Z"/><path class="cls-4" d="M163,26.11a1.62,1.62,0,0,1,1.41.68,3,3,0,0,1,.47,1.72,4.26,4.26,0,0,1-.74,2.64,3,3,0,0,1-2.26,1.13l-.11-.89a2.33,2.33,0,0,0,1.47-.56,2.22,2.22,0,0,0,.68-1.33,1.38,1.38,0,0,1-1.09.43,1.54,1.54,0,0,1-1.16-.49,1.88,1.88,0,0,1-.46-1.36,2,2,0,0,1,.49-1.42A1.65,1.65,0,0,1,163,26.11Zm0,3a.87.87,0,0,0,.67-.27,1,1,0,0,0,.25-.75,1,1,0,0,0-.26-.73A.84.84,0,0,0,163,27a.81.81,0,0,0-.64.28,1.05,1.05,0,0,0-.26.75,1,1,0,0,0,.26.74A.82.82,0,0,0,163,29.07Z"/><path class="cls-4" d="M167.63,28.46a1.57,1.57,0,0,1,1.18.49,1.86,1.86,0,0,1,.47,1.35,2.08,2.08,0,0,1-.5,1.43,1.72,1.72,0,0,1-1.31.55,1.6,1.6,0,0,1-1.39-.66,2.74,2.74,0,0,1-.48-1.68v-.1a4.23,4.23,0,0,1,.74-2.61,3,3,0,0,1,2.25-1.12l.11.87a2.4,2.4,0,0,0-1.47.59,2.17,2.17,0,0,0-.68,1.32A1.37,1.37,0,0,1,167.63,28.46Zm-.17,2.89a.81.81,0,0,0,.63-.28,1.09,1.09,0,0,0,.26-.75,1,1,0,0,0-.25-.74.83.83,0,0,0-.64-.26.87.87,0,0,0-.67.27,1.22,1.22,0,0,0,0,1.48A.85.85,0,0,0,167.46,31.35Z"/><path class="cls-4" d="M171.52,26.11a1.6,1.6,0,0,1,1.41.68,2.89,2.89,0,0,1,.48,1.72,4.33,4.33,0,0,1-.74,2.64,3,3,0,0,1-2.26,1.13l-.12-.89a2.38,2.38,0,0,0,1.48-.56,2.22,2.22,0,0,0,.68-1.33,1.38,1.38,0,0,1-1.09.43,1.53,1.53,0,0,1-1.16-.49,1.89,1.89,0,0,1-.47-1.36,2.05,2.05,0,0,1,.5-1.42A1.63,1.63,0,0,1,171.52,26.11Zm0,3a.85.85,0,0,0,.66-.27,1.05,1.05,0,0,0,.26-.75,1,1,0,0,0-.26-.73.84.84,0,0,0-.66-.28.81.81,0,0,0-.64.28,1.22,1.22,0,0,0,0,1.49A.85.85,0,0,0,171.55,29.07Z"/></g></g></svg>