<svg xmlns="http://www.w3.org/2000/svg" xmlns:xlink="http://www.w3.org/1999/xlink" version="1.1" id="Layer_1" x="0px" y="0px" style="enable-background:new 0 0 461.7 129.6;" xml:space="preserve" viewBox="0 0 460.92 129.6">
<style type="text/css">
	.st0{fill:#212121;}
	.st1{fill:#212121;}
</style>
<g>
	<g>
		<g>
			<path class="st0" d="M0,0h48.8v70H0V0z M41.8,7H7v55.9h34.7V7z"/>
		</g>
	</g>
	<g>
		<g>
			<path class="st1" d="M81.3,31.4h-3c-4-5.6-7.9-11.2-11.8-17.5h0v17.5h-3.3V7h3c4,5.6,7.9,11.1,11.8,17.4H78V7h3.3V31.4z"/>
		</g>
	</g>
	<g>
		<g>
			<path class="st1" d="M89.2,21.8c1-3.2,1.9-6.2,2.8-9.9h0.1c1,3.8,1.8,6.7,2.7,9.9H89.2z M90.8,7l-8.4,24.4H86l2.1-6.6h7.3     l1.9,6.6h4.7L94.3,7H90.8z"/>
		</g>
	</g>
	<g>
		<g>
			<polygon class="st1" points="106,31.4 106,10.3 99.6,10.3 99.6,7 116.6,7 116.6,10.3 110.2,10.3 110.2,31.4    "/>
		</g>
	</g>
	<g>
		<g>
			<rect x="117.9" y="7" class="st1" width="4.1" height="24.4"/>
		</g>
	</g>
	<g>
		<g>
			<path class="st1" d="M135,28.3c-4.4,0-5.9-4.8-5.9-9.5c0-4.5,1.7-8.8,5.9-8.8c4.1,0,5.9,4.3,5.9,8.8     C140.8,23.5,139.3,28.3,135,28.3 M135,31.8c6.4,0,10.3-5.7,10.3-12.9c0-6.8-4.4-12.2-10.3-12.2c-6,0-10.3,5.4-10.3,12.2     C124.6,26.1,128.6,31.8,135,31.8"/>
		</g>
	</g>
	<g>
		<g>
			<path class="st1" d="M166.1,31.4h-3c-4-5.6-7.9-11.2-11.8-17.5h0v17.5h-3.3V7h3c4,5.6,7.9,11.1,11.8,17.4h0.1V7h3.3V31.4z"/>
		</g>
	</g>
	<g>
		<g>
			<path class="st1" d="M174,21.8c1-3.2,1.9-6.2,2.8-9.9h0.1c1,3.8,1.8,6.7,2.7,9.9H174z M175.6,7l-8.4,24.4h3.6l2.1-6.6h7.3     l1.9,6.6h4.7L179.1,7H175.6z"/>
		</g>
	</g>
	<g>
		<g>
			<polygon class="st1" points="188.1,7 192.2,7 192.2,28.1 200.5,28.1 200.5,31.4 188.1,31.4    "/>
		</g>
	</g>
	<g>
		<g>
			<path class="st1" d="M78.7,51.8v10.1c-2.2,0.9-4.6,1.5-6.9,1.5c-7.2,0-11.7-5.6-11.7-12.7c0-6.6,4.5-12.5,11.8-12.5     c2.3,0,4.5,0.8,5.9,1.9l-1.4,2.9c-1.1-0.7-2.9-1.3-4.5-1.3c-4.5,0-7.5,3.5-7.5,9c0,5.8,3.5,9.2,7.1,9.2c1.1,0,2.1-0.1,2.9-0.6     v-7.5H78.7z"/>
		</g>
	</g>
	<g>
		<g>
			<polygon class="st1" points="93.7,41.8 86.7,41.8 86.7,48.5 93.5,48.5 93.5,51.8 86.7,51.8 86.7,59.6 94.9,59.6 94.9,62.9      82.5,62.9 82.5,38.6 93.7,38.6    "/>
		</g>
	</g>
	<g>
		<g>
			<path class="st1" d="M106.5,59.9c-4.4,0-5.9-4.8-5.9-9.5c0-4.5,1.7-8.8,5.9-8.8c4.1,0,5.9,4.3,5.9,8.8     C112.4,55.1,110.9,59.9,106.5,59.9 M106.5,63.3c6.4,0,10.3-5.7,10.3-12.9c0-6.8-4.4-12.2-10.3-12.2c-6,0-10.3,5.4-10.3,12.2     C96.2,57.7,100.2,63.3,106.5,63.3"/>
		</g>
	</g>
	<g>
		<g>
			<path class="st1" d="M136.9,51.8v10.1c-2.2,0.9-4.6,1.5-6.9,1.5c-7.2,0-11.7-5.6-11.7-12.7c0-6.6,4.5-12.5,11.8-12.5     c2.3,0,4.5,0.8,5.9,1.9l-1.4,2.9c-1.1-0.7-2.9-1.3-4.5-1.3c-4.5,0-7.5,3.5-7.5,9c0,5.8,3.5,9.2,7.1,9.2c1.1,0,2.1-0.1,2.9-0.6     v-7.5H136.9z"/>
		</g>
	</g>
	<g>
		<g>
			<path class="st1" d="M144.9,41.8h1.8c2.5,0,3.9,1.4,3.9,3.9c0,3.3-2,4.7-4,4.8c-0.4,0-1.4,0.1-1.7,0.1V41.8z M155.5,62.9     l-4.9-10.1c2.7-1.4,4.2-4.3,4.2-7.2c0-4.7-2.9-7-7.6-7h-6.5v24.4h4.2v-9.2h1.8h0.1l3.9,9.2H155.5z"/>
		</g>
	</g>
	<g>
		<g>
			<path class="st1" d="M162.4,53.3c1-3.2,1.9-6.2,2.8-9.9h0.1c1,3.8,1.8,6.7,2.7,9.9H162.4z M164,38.6l-8.4,24.4h3.6l2.1-6.6h7.3     l1.9,6.6h4.7l-7.8-24.4H164z"/>
		</g>
	</g>
	<g>
		<g>
			<path class="st1" d="M180.7,62.9h-4.2V38.6h6.5c4.7,0,7.6,2.3,7.6,7c0,4.1-3,8.1-8,8.1h-1.9v-3c0.2,0,1.4-0.1,1.8-0.1     c2-0.1,4-1.6,4-4.8c0-2.5-1.4-3.9-3.8-3.9h-1.9V62.9z"/>
		</g>
	</g>
	<g>
		<g>
			<polygon class="st1" points="210,62.9 205.8,62.9 205.8,51.2 197.1,51.2 197.1,62.9 193,62.9 193,38.6 197.1,38.6 197.1,47.9      205.8,47.9 205.8,38.6 210,38.6    "/>
		</g>
	</g>
	<g>
		<g>
			<rect x="214" y="38.6" class="st1" width="4.1" height="24.4"/>
		</g>
	</g>
	<g>
		<g>
			<path class="st1" d="M236.9,43c-1-0.6-2.7-1.4-4.3-1.4c-4.2,0-7.3,3.5-7.3,9c0,5.8,3.4,9.2,7.4,9.2c1.6,0,3.1-0.5,4.2-1.2l1.2,3     c-1.3,0.9-3.5,1.7-5.5,1.7c-7.2,0-11.7-5.6-11.7-12.7c0-6.6,4.5-12.5,11.8-12.5c2.2,0,4.2,0.9,5.6,1.9L236.9,43z"/>
		</g>
	</g>
</g>
<g>
	<g>
		<path class="st1" d="M75.5,128.8l-12.6-17.7l-12.6,17.7H45l15.5-20.9L45,86.8h5.5l12.6,17.7l12.6-17.7H81l-15.5,20.9L81,128.8    H75.5z"/>
	</g>
	<g>
		<path class="st1" d="M106.3,114.2c-1.4,0-3.3-0.1-4.8-0.2v14.8h-4.6V87.2c3.1-0.4,6.2-0.7,9.6-0.7c10.8,0,16.2,6.2,16.2,13.4    C122.7,108.3,116.6,114.2,106.3,114.2z M107.3,90.6c-1.9,0-4.2,0.1-5.7,0.5v18.7c1.4,0.2,3.4,0.3,5,0.3c7.9,0,11.2-4.5,11.2-10    C117.8,95.2,114.2,90.6,107.3,90.6z"/>
	</g>
	<g>
		<path class="st1" d="M189.5,129.1c-4.2,0-8.1-0.3-11.4-0.7V87.2c3.2-0.4,6.7-0.7,10.9-0.7c15.8,0,24,10.1,24,20.9    C213.1,118.7,205.3,129.1,189.5,129.1z M189.5,90.4c-2.5,0-5.3,0.2-6.8,0.5v33.9c1.8,0.3,4,0.5,7.3,0.5c12.4,0,18.1-7.8,18.1-17.8    C208.1,97.6,201.7,90.4,189.5,90.4z"/>
	</g>
	<g>
		<path class="st1" d="M232,128.8v-42h4.6v42H232z"/>
	</g>
	<g>
		<path class="st1" d="M272.4,90.9v37.9h-4.6V90.9h-14v-4.1h32.6v4.1H272.4z"/>
	</g>
	<g>
		<path class="st1" d="M303.5,128.8v-42h4.6v42H303.5z"/>
	</g>
	<g>
		<path class="st1" d="M347.7,129.5c-11.4,0-20.8-9.1-20.8-21.7c0-12.6,9.8-21.7,21.2-21.7c11.3,0,20.8,9.1,20.8,21.7    C368.8,120.4,359,129.5,347.7,129.5z M347.9,90.2c-9.3,0-16,7.7-16,17.6c0,9.9,6.6,17.6,16,17.6c9.3,0,15.9-7.7,15.9-17.6    C363.9,97.9,357.2,90.2,347.9,90.2z"/>
	</g>
	<g>
		<path class="st1" d="M419.3,129.6L392,96.9v31.9h-4.6V86.2l0.9-0.2l26.9,32.2V86.8h4.6v42.6L419.3,129.6z"/>
	</g>
	<g>
		<path class="st1" d="M448.4,129.3c-4.8,0-8.5-1.5-12.2-3.9l2.2-4c3.2,2.3,6.9,3.7,10.1,3.7c5.4,0,7.9-3.6,7.9-7.3    c0-3.7-1.4-5.8-8.3-8.9c-7.3-3.2-10-6.5-10-11.5c0-6.1,5.2-11.5,12.8-11.5c3.6,0,6.9,1.2,9.3,2.9l-2.1,3.9    c-2.1-1.5-4.8-2.6-7.6-2.6c-5.3,0-8,3.2-8,7.1c0,2.9,2,5.3,7.2,7.6c8.8,4,11.2,6.9,11.2,12.5C461.3,124.1,455.7,129.3,448.4,129.3    z"/>
	</g>
	<g>
		<path class="st1" d="M135.8,128.6v-42h26.5v4.1h-21.9v14.5h19.9v4.1h-19.9v15.1h21.9v4.1H135.8z"/>
	</g>
	<g>
		<path class="st1" d="M3.4,128.8v-42h26.5v4.1H8v14.5h19.9v4.1H8v15.1h21.9v4.1H3.4z"/>
	</g>
</g>
</svg>