<svg xmlns="http://www.w3.org/2000/svg" fill="#currentColor" viewBox="0 0 91.1 36">
<path d="M3.5789 0H23.5346L22.8296 1.94306H16.5393L13.5567 10.1291H6.77832L9.76083 1.94306H2.87395L3.5789 0Z" fill="#currentColor"/>
<path d="M43.0384 0H24.8L21.1125 10.1291H28.0898L31.0542 1.94306H36.26C36.8204 1.94306 37.0373 2.33887 36.9108 2.75267C36.7842 3.16647 36.6035 3.67022 36.4769 3.97608C36.2962 4.38988 35.8804 4.71372 35.2659 4.71372H30.3854L34.6332 10.1111H42.6769L39.0618 6.06307H41.2309C42.2431 6.06307 42.8215 5.52333 43.0927 4.85765C43.4 4.10202 44.0688 2.23092 44.2857 1.60123C44.6472 0.611704 44.0688 0 43.0384 0Z" fill="#currentColor"/>
<path d="M64.1329 1.94306L64.8379 0H46.4728L43.9422 6.94464C43.7796 7.39442 43.7434 7.89818 44.0868 8.276C44.1253 8.32062 44.2545 8.46464 44.4126 8.64082L44.4142 8.64265L44.4145 8.64301C44.7023 8.96378 45.0847 9.38991 45.1895 9.5174C45.4787 9.84124 45.8402 10.1111 46.4367 10.1111H61.1323L61.8373 8.18604H51.5522C50.9195 8.18604 50.6303 7.71826 50.793 7.25049L51.2629 5.97311H62.6326L63.3376 4.03005H51.9679L52.7451 1.92507H64.1329V1.94306Z" fill="#currentColor"/>
<path d="M73.5683 0H66.4103L62.7229 10.1291H69.8989L73.5683 0Z" fill="#currentColor"/>
<path d="M76.5148 10.1291L72.267 4.71372L79.8769 0H88.2822L80.0396 4.76769L84.7936 10.1291H76.5148Z" fill="#currentColor"/>
<path d="M48.7866 15.4908H42.2974L0 16.3364V16.5523L42.2974 17.4698H48.8047L91.102 16.5523V16.3364L48.7866 15.4908Z" fill="#currentColor"/>
<path d="M67.477 22.4891C67.2601 22.813 66.8805 22.831 65.6695 22.831L53.9383 22.813V23.0648C54.8963 23.1188 55.3301 23.4067 55.3301 24.0364C55.3301 24.4502 55.077 25.1518 54.7878 25.8715C53.2695 29.4877 52.0765 31.9705 52.0765 31.9705C52.0765 31.9705 50.3592 28.5882 49.0397 25.3677C48.8047 24.81 48.6782 24.3422 48.6782 24.0364C48.6782 23.3527 49.3109 23.1188 49.8531 23.0648V22.813H43.9966V23.0648C43.9966 23.0648 44.8642 23.0828 45.5692 23.4606C46.1295 23.7665 46.6899 24.81 47.0695 25.6196C47.7021 26.951 49.8893 31.7546 50.5762 33.4278C51.01 34.5073 51.1907 34.9391 51.1907 34.9391L51.6426 34.8671C51.6426 34.8671 54.3179 28.84 55.8001 25.8715C56.5954 24.2882 57.0111 23.7665 57.6438 23.3887C57.8065 23.2987 57.9872 23.2268 58.168 23.1728H58.2042C58.3488 23.1368 58.4934 23.1188 58.638 23.1188C59.6502 23.1188 60.4636 23.9284 60.4636 24.9359C60.4636 24.9878 60.4678 25.0438 60.4721 25.102C60.4768 25.1648 60.4817 25.2304 60.4817 25.2958C60.5241 26.5206 60.5223 27.1395 60.5195 28.0835C60.5187 28.3459 60.5179 28.6334 60.5179 28.966C60.5179 30.4233 60.4817 31.7187 60.4275 32.4743C60.3732 33.1939 60.319 33.7877 59.8852 34.1295C59.4514 34.4713 58.2042 34.5253 58.2042 34.5253V34.7772H67.6036L68.5074 32.0605L68.2905 31.9705C68.2905 31.9705 67.947 32.7801 67.5132 33.158C66.7359 33.8236 65.5791 34.0755 64.4042 34.0755C62.6689 34.0755 62.47 33.5897 62.3977 32.2944C62.3328 31.2274 62.3408 29.6374 62.3431 29.1822L62.3433 29.1244C62.3434 29.1024 62.3435 29.0854 62.3435 29.0739L65.3079 29.1279C65.5068 29.1279 65.9406 29.1639 66.1575 29.3978C66.2479 29.4877 66.3021 29.5957 66.3563 29.7036C66.4648 30.0095 66.5371 30.2973 66.5552 30.4233C66.5732 30.4593 66.5732 30.4773 66.5732 30.4952H66.7902V26.843H66.5732C66.5677 26.8707 66.5623 26.8979 66.5569 26.9248C66.4754 27.3347 66.412 27.6534 66.1575 27.9405C65.9225 28.1744 65.5068 28.2104 65.3079 28.2104L62.3435 28.2643C62.3435 26.843 62.3797 25.0979 62.4339 23.6046C62.4339 23.6046 62.9762 23.5866 63.6269 23.5866C64.133 23.5866 64.7114 23.6046 65.1272 23.6226C65.796 23.6586 66.4106 23.6945 66.8082 23.9824C67.224 24.2882 67.2782 25.2778 67.2782 25.2778H67.4951L67.6578 22.4891H67.477Z" fill="#currentColor"/>
<path fill-rule="evenodd" clip-rule="evenodd" d="M34.1995 25.7998C34.1995 27.491 32.7353 28.3366 31.8315 28.8043C41.3665 40.1185 47.0499 32.4566 47.245 32.1935C47.2482 32.1893 47.2499 32.187 47.2502 32.1867L47.4852 32.3846C47.4852 32.3846 41.014 42.2079 29.9697 29.47L28.2887 29.7579C28.2887 29.7579 28.3248 31.8089 28.361 32.3126L28.3676 32.4225C28.4181 33.2663 28.4671 34.0855 29.2467 34.3097C29.789 34.4716 30.4035 34.5076 30.4035 34.5076V34.7595H24.4566V34.5076C24.4566 34.5076 25.4327 34.4896 25.8665 34.1478C26.3013 33.8149 26.3493 33.1586 26.397 32.5066L26.397 32.5062L26.3971 32.5059C26.4009 32.4534 26.4047 32.4009 26.4088 32.3486C26.463 31.647 26.4811 29.9918 26.4811 28.9303C26.4811 27.6169 26.4449 26.0697 26.4088 25.386C26.3546 24.1626 26.2461 23.7488 25.8484 23.4429C25.4146 23.1011 24.3481 22.9932 24.3481 22.9932V22.7413C24.3481 22.7413 27.5656 22.6873 29.1202 22.6873C31.9761 22.6873 34.1995 23.6408 34.1995 25.7998ZM28.3067 28.9843L30.4216 28.5705C30.9277 28.3905 32.1027 27.9228 32.1027 26.1956C32.1027 23.9287 29.8793 23.299 28.3429 23.299C28.3067 24.8822 28.3067 28.9843 28.3067 28.9843Z" fill="#currentColor"/>
<path d="M73.5866 33.338C73.4913 31.3613 73.4937 30.0517 73.4957 28.9818C73.496 28.8345 73.4962 28.6917 73.4962 28.5523C73.4962 27.6528 73.5143 26.3754 73.5866 25.044C73.6228 24.2344 73.6951 23.6407 74.1289 23.4068C74.635 23.1369 75.6473 23.065 75.6473 23.065V22.8131H69.7003V23.065C69.7003 23.065 70.6222 23.101 71.1102 23.4068C71.4717 23.6407 71.5621 24.1265 71.5802 25.062C71.6164 26.7172 71.6164 27.9046 71.6164 28.6243C71.6164 28.7859 71.6168 28.9609 71.6173 29.1454C71.6198 30.1319 71.623 31.3908 71.5621 32.3305C71.4898 33.5719 71.3091 33.8777 70.9837 34.1116C70.5318 34.4355 69.5376 34.4894 69.5376 34.4894V34.7413H71.4898C72.1767 34.7593 73.7132 34.9392 74.6892 35.1911C75.2315 35.3171 75.7919 35.389 76.3884 35.389C79.1901 35.389 80.6904 33.9137 81.793 32.3665L81.5581 32.1686C78.9009 36.1087 73.5866 33.338 73.5866 33.338Z" fill="#currentColor"/>
<path fill-rule="evenodd" clip-rule="evenodd" d="M37.2904 29.0381C36.947 29.9017 36.6216 30.3155 36.3505 30.5134C35.9709 30.7653 35.3744 30.7832 35.3744 30.7832V30.9632H39.0799V30.7832C39.0521 30.7793 39.0177 30.776 38.9787 30.7722L38.9782 30.7722L38.978 30.7722L38.9776 30.7721C38.6603 30.7417 38.0315 30.6815 38.0315 30.0096C38.0315 29.8758 38.094 29.6487 38.1464 29.4584L38.1581 29.4159C38.3027 28.8942 38.6461 28.0666 38.7365 27.8507H41.5744C41.6286 27.9946 41.7913 28.4264 42.0443 29.164C42.1528 29.4519 42.2432 29.7757 42.2432 30.0456C42.2432 30.652 41.5463 30.7347 41.1365 30.7833C41.0843 30.7895 41.0368 30.7951 40.996 30.8012V30.9811H45.533V30.8012C45.0269 30.7653 44.2315 30.5853 43.7796 29.3979C43.312 28.1878 42.6667 26.4765 42.1939 25.2228L42.1933 25.2211L42.1929 25.2202C42.0265 24.7788 41.8815 24.3942 41.7732 24.1085C41.7371 24.0185 41.719 23.9286 41.719 23.8206C41.719 23.4248 42.0443 23.083 42.4601 23.083H42.5143V23.065L42.442 22.8131H37.8688V23.065C37.8688 23.065 39.6945 22.939 39.2788 23.9645C38.9353 24.99 37.8869 27.5988 37.2904 29.0381ZM40.1464 24.0545L41.3394 27.077H38.9715C39.4234 25.8536 40.1464 24.0545 40.1464 24.0545Z" fill="#currentColor"/>
<path d="M22.5947 22.7231L23.4985 25.5478L23.2997 25.6377C23.2997 25.6377 22.9562 24.8101 22.5224 24.4323C21.7452 23.7486 21.239 23.4968 20.0641 23.4968C18.365 23.4968 18.3108 23.9645 18.2384 25.2059V32.4924C18.2565 33.428 18.3469 33.8957 18.7084 34.1476C19.1784 34.4535 20.1183 34.4894 20.1183 34.4894V34.7593H14.0991V34.4894C14.0991 34.4894 15.1113 34.4175 15.6175 34.1476C16.0513 33.8957 16.1236 33.32 16.1597 32.5104V25.2239C16.0874 23.9645 16.0513 23.4968 14.3341 23.4968C13.1772 23.4968 12.653 23.7666 11.8758 24.4323C11.4419 24.8101 11.0985 25.6377 11.0985 25.6377L10.8997 25.5478L11.8035 22.7231H22.5947Z" fill="#currentColor"/>
</svg>