<svg xmlns="http://www.w3.org/2000/svg" version="1.0" preserveAspectRatio="xMidYMid meet" viewBox="50 37 1438 179.9">

<g transform="translate(0.000000,252.000000) scale(0.100000,-0.100000)" fill="currentcolor" stroke="none">
<path d="M1879 1903 c-79 -137 -167 -288 -196 -337 -29 -50 -53 -94 -53 -98 0 -11 201 -143 1000 -659 338 -219 616 -396 618 -394 3 2 -44 73 -104 157 -781 1107 -1116 1578 -1120 1578 -1 0 -67 -111 -145 -247z"/>
<path d="M1090 1598 c-24 -51 -109 -228 -188 -393 -334 -695 -402 -837 -402 -846 0 -10 2587 -11 2664 -1 l48 7 -133 85 c-150 94 -629 402 -1406 903 -287 185 -526 337 -531 337 -5 0 -28 -42 -52 -92z"/>
<path d="M12295 1594 c-256 -28 -416 -100 -481 -216 -27 -49 -29 -61 -29 -153 0 -89 3 -106 28 -157 71 -144 236 -203 640 -228 411 -26 460 -35 473 -84 8 -33 -3 -64 -27 -77 -45 -23 -175 -39 -330 -39 -187 0 -283 12 -360 47 -49 21 -57 29 -65 61 l-9 37 -194 3 -194 2 6 -72 c15 -171 125 -284 338 -345 57 -16 107 -18 454 -18 434 0 450 2 585 70 77 39 122 86 159 165 22 47 26 68 25 150 0 139 -39 212 -147 274 -91 53 -299 89 -572 101 -166 7 -325 22 -377 36 -41 11 -55 38 -44 83 8 34 100 57 251 63 130 6 320 -10 370 -31 17 -8 47 -32 67 -55 l35 -41 187 0 188 0 -7 43 c-11 64 -42 146 -72 190 -52 75 -182 140 -344 172 -82 16 -458 29 -554 19z"/>
<path d="M4412 1563 c-11 -20 -445 -964 -510 -1108 l-41 -90 202 -7 c111 -3 206 -4 210 -1 5 3 33 57 62 119 l54 114 313 0 313 0 50 -115 50 -115 212 0 c117 0 213 4 213 8 0 5 -69 154 -153 333 -84 178 -211 449 -282 602 l-128 277 -278 0 c-255 0 -279 -1 -287 -17z m363 -453 c37 -85 75 -176 86 -202 l18 -47 -184 2 c-102 1 -185 3 -185 4 0 4 78 183 127 291 31 67 60 119 64 115 4 -5 37 -78 74 -163z"/>
<path d="M5670 970 l0 -610 620 0 620 0 0 160 0 160 -425 0 -425 0 0 450 0 450 -195 0 -195 0 0 -610z"/>
<path d="M7088 970 l-3 -610 193 0 192 0 0 160 0 160 340 0 c386 0 410 4 520 81 181 127 242 373 143 576 -33 68 -112 149 -179 185 -105 57 -122 58 -686 58 l-518 0 -2 -610z m980 272 c37 -21 62 -72 62 -125 0 -40 -5 -54 -29 -78 l-29 -29 -301 0 -301 0 0 118 c0 65 3 122 7 126 4 4 134 6 288 4 208 -2 286 -6 303 -16z"/>
<path d="M8760 1535 l0 -44 136 -81 c74 -44 137 -80 140 -80 2 0 4 56 4 125 l0 125 -140 0 -140 0 0 -45z"/>
<path d="M9330 970 l0 -610 195 0 195 0 2 403 3 402 179 -215 c98 -118 246 -299 330 -402 l151 -188 263 0 262 0 0 610 0 610 -195 0 -195 0 -2 -407 -3 -406 -200 244 c-109 134 -260 317 -334 407 l-135 162 -258 0 -258 0 0 -610z"/>
<path d="M11201 1553 c2 -60 12 -71 147 -151 l132 -80 0 129 0 129 -140 0 -140 0 1 -27z"/>
<path d="M13400 1415 l0 -165 263 0 264 0 6 -167 c4 -91 7 -291 7 -444 0 -160 4 -280 9 -284 5 -3 93 -2 195 1 l186 7 0 444 0 443 275 0 275 0 0 165 0 165 -740 0 -740 0 0 -165z"/>
<path d="M2885 1349 c-72 -50 -131 -92 -133 -94 -1 -1 124 -183 279 -404 155 -220 284 -399 286 -397 5 5 -28 119 -152 531 -51 171 -103 343 -115 383 -11 39 -24 72 -28 72 -4 0 -66 -41 -137 -91z"/>
<path d="M8710 866 c0 -349 3 -507 11 -511 6 -4 93 -4 195 0 l184 7 0 383 0 384 -182 113 c-101 63 -189 118 -195 122 -10 6 -13 -97 -13 -498z"/>
<path d="M11140 865 l0 -505 200 0 200 0 -2 391 -3 391 -193 114 c-106 63 -195 114 -197 114 -3 0 -5 -227 -5 -505z"/>
</g>
</svg>