<svg xmlns="http://www.w3.org/2000/svg" version="1.1" viewBox="100 102 1400.34 646.15">
<path d="M0 0 C33.86671687 0 33.86671687 0 44.5625 1.125 C46.52074707 1.32295166 46.52074707 1.32295166 48.51855469 1.52490234 C129.97633854 10.10648405 211.27344855 39.18691784 276.27294922 89.66992188 C278.87930598 91.67719239 281.53727626 93.61370445 284.1875 95.5625 C290.69233086 100.43891061 296.85202869 105.68633837 303 111 C304.11181641 111.9590625 304.11181641 111.9590625 305.24609375 112.9375 C307.17443469 114.61364344 309.087754 116.30552189 311 118 C311.70914551 118.62430908 312.41829102 119.24861816 313.14892578 119.8918457 C319.36819475 125.41915502 325.32794055 131.17246111 331.1965332 137.06616211 C332.69304925 138.56806925 334.194883 140.06451062 335.69726562 141.56054688 C341.00825475 146.86754467 346.14599946 152.26738929 351 158 C351.87696459 159.00967045 352.75452926 160.01882015 353.6328125 161.02734375 C408.36187276 224.9351022 445.19091792 303.21078382 459.3125 386.125 C459.43010681 386.80449707 459.54771362 387.48399414 459.66888428 388.18408203 C460.5654785 393.4412029 461.29670859 398.71392499 462 404 C462.18968762 405.39680244 462.18968762 405.39680244 462.38320732 406.82182312 C465.51008067 430.738138 465.39861201 454.5608292 465.30418181 478.63921118 C465.28514207 484.33255231 465.28364348 490.02590074 465.28010559 495.7192688 C465.27086388 506.44935286 465.2463594 517.17934278 465.21605712 527.9093858 C465.17591834 542.44500563 465.15999445 556.98065209 465.14255047 571.51631355 C465.11453046 594.34427925 465.05470928 617.17204649 465 640 C401.97 640 338.94 640 274 640 C273.96261719 626.16449219 273.92523437 612.32898438 273.88671875 598.07421875 C273.85641282 589.26496427 273.82536662 580.45572248 273.79101562 571.64648438 C273.73672924 557.69003503 273.68530867 543.73362087 273.65356445 529.77709961 C273.63042145 519.60829299 273.59684552 509.43958038 273.55129844 499.27084857 C273.52758348 493.89825622 273.50871378 488.5257557 273.50238609 483.15311241 C273.5108757 443.02274122 273.5108757 443.02274122 267.375 403.4375 C267.12339111 402.3436499 266.87178223 401.2497998 266.61254883 400.12280273 C258.73479841 367.32817594 244.5026303 335.83397093 224 309 C223.57928223 308.43796875 223.15856445 307.8759375 222.72509766 307.296875 C215.45050265 297.58647986 207.41087722 288.73354515 199 280 C198.2471875 279.2059375 197.494375 278.411875 196.71875 277.59375 C191.53885945 272.24402697 185.83594459 267.61339494 180 263 C179.01128906 262.2059375 178.02257813 261.411875 177.00390625 260.59375 C124.25471733 218.97391555 65.62369841 208.18745661 0 206 C0 138.02 0 70.04 0 0 Z " fill="#000000" transform="translate(1035,102)"/>
<path d="M0 0 C43.12759712 0 81.46006701 3.66312972 121 21 C121.72058594 21.31018066 122.44117188 21.62036133 123.18359375 21.93994141 C142.06677804 30.12987294 159.03426482 41.07338558 175 54 C175.56203125 54.44633789 176.1240625 54.89267578 176.703125 55.35253906 C190.80114141 66.56764799 204.21285394 79.55292938 215 94 C215.70769531 94.92570801 215.70769531 94.92570801 216.4296875 95.87011719 C225.40633919 107.64359879 233.04972553 119.93368502 240 133 C240.40702148 133.75796875 240.81404297 134.5159375 241.23339844 135.296875 C260.12030898 171.01260861 267.19652076 211.36451112 267.11352539 251.3762207 C267.11324279 253.29929605 267.11340268 255.2223715 267.1139679 257.14544678 C267.11425302 262.32840556 267.10840258 267.51134086 267.10139394 272.69429421 C267.09511274 278.12482345 267.09455285 283.55535331 267.09336853 288.98588562 C267.09026921 299.25254675 267.08207479 309.51919715 267.07201904 319.78585356 C267.05871632 333.67108067 267.05334669 347.55631075 267.04751682 361.44154263 C267.03813388 383.29436978 267.01820563 405.14717429 267 427 C215.19 427 163.38 427 110 427 C109.75 353.5625 109.75 353.5625 109.70214844 330.45922852 C109.66888815 323.56583526 109.66888815 323.56583526 109.63043213 316.67247009 C109.61357298 313.625667 109.60756182 310.57905993 109.60845947 307.5322113 C109.60788226 281.03206477 108.71296188 257.81723069 90 237 C89.48179688 236.38898438 88.96359375 235.77796875 88.4296875 235.1484375 C76.93323962 222.49656772 61.2784313 217.25568626 45 214 C22.725 213.505 22.725 213.505 0 213 C0 142.71 0 72.42 0 0 Z " fill="currentcolor" transform="translate(1035,315)"/>
<path d="M0 0 C14.85 0 29.7 0 45 0 C50.71576041 9.7167927 56.40868418 19.39932868 61.875 29.25 C66.17300423 36.95803448 70.489957 44.65361019 74.875 52.3125 C75.35324219 53.1478125 75.83148438 53.983125 76.32421875 54.84375 C77.88210968 57.56290345 79.44101498 60.28147369 81 63 C83.62677917 67.58231652 86.25200886 72.16551444 88.875 76.75 C89.21346954 77.34147827 89.55193909 77.93295654 89.90066528 78.5423584 C95.28200578 87.95037474 100.60600618 97.38918293 105.86865234 106.86425781 C111.13150015 116.31394943 116.57721382 125.63336932 122 135 C122.33 90.45 122.66 45.9 123 0 C136.53 0 150.06 0 164 0 C164 66.33 164 132.66 164 201 C149.81 201 135.62 201 121 201 C115.94331679 192.78288978 111.02725508 184.61971234 106.375 176.1875 C101.678049 167.73400485 96.89866522 159.33819752 92 151 C86.62777755 141.85101966 81.4092313 132.6259625 76.25 123.35546875 C71.69751571 115.19554713 67.00881109 107.12222386 62.27636719 99.06567383 C57.21181956 90.42005348 52.3068659 81.69051885 47.44140625 72.93164062 C46.88839844 71.93712891 46.33539063 70.94261719 45.765625 69.91796875 C45.27868164 69.03906982 44.79173828 68.1601709 44.29003906 67.25463867 C43.2637403 65.46094657 42.14631456 63.71947185 41 62 C40.67 107.87 40.34 153.74 40 201 C26.8 201 13.6 201 0 201 C0 134.67 0 68.34 0 0 Z " fill="currentcolor" transform="translate(100,322)"/>
<path d="M0 0 C18.665625 -0.0825 37.33125 -0.165 56.5625 -0.25 C62.42974854 -0.28641602 68.29699707 -0.32283203 74.34204102 -0.36035156 C81.57409668 -0.37841797 81.57409668 -0.37841797 84.97276306 -0.3817749 C87.31796821 -0.38786839 89.66316178 -0.40183399 92.00828552 -0.42230225 C112.25162796 -0.58996713 132.55313262 0.20429276 148.1953125 15.03515625 C158.66815534 26.43740722 164.42249258 40.80075664 164.3125 56.25 C164.30686035 57.08337891 164.3012207 57.91675781 164.29541016 58.77539062 C164.03486355 72.09680334 159.93712488 84.35274646 150.84765625 94.36328125 C141.09785203 103 141.09785203 103 136 103 C136 103.66 136 104.32 136 105 C136.70125 105.2475 137.4025 105.495 138.125 105.75 C146.35860584 109.32982863 151.91668794 114.69141104 155.25 123 C159.60301289 136.68698237 159.3477897 151.12644541 159.45629883 165.33691406 C159.41842675 177.99150686 159.41842675 177.99150686 163 190 C164.65533995 191.34736973 166.32012773 192.68334336 168 194 C168 195.98 168 197.96 168 200 C152.16 200 136.32 200 120 200 C116.94886547 185.76137218 115.79918637 172.84591363 115.52319336 158.44970703 C115.54200428 143.5085768 115.54200428 143.5085768 110 130 C110 129.34 110 128.68 110 128 C100.70686364 123.97297425 92.31443831 122.5448702 82.2109375 122.48828125 C80.63372925 122.46332581 80.63372925 122.46332581 79.0246582 122.43786621 C75.14163691 122.38055276 71.25828257 122.34793601 67.375 122.3125 C54.319375 122.1578125 54.319375 122.1578125 41 122 C41 147.74 41 173.48 41 200 C27.47 200 13.94 200 0 200 C0 134 0 68 0 0 Z M41 35 C41 52.49 41 69.98 41 88 C49.70375 88.04125 58.4075 88.0825 67.375 88.125 C71.46720947 88.15231201 71.46720947 88.15231201 75.64208984 88.18017578 C77.83170373 88.18602318 80.02131982 88.19111815 82.2109375 88.1953125 C83.32573486 88.20554443 84.44053223 88.21577637 85.58911133 88.22631836 C96.67095121 88.22876414 107.55685577 87.32218547 115.8125 79.25 C121.29471683 71.10499214 121.96646726 63.68689022 121 54 C119.29771615 46.71979233 115.01143529 42.22848455 109 38 C103.72045962 35.23452647 97.97087424 34.87339806 92.08642578 34.88647461 C90.37533127 34.88658791 90.37533127 34.88658791 88.62966919 34.88670349 C86.80591263 34.89444542 86.80591263 34.89444542 84.9453125 34.90234375 C83.68862762 34.9037587 82.43194275 34.90517365 81.13717651 34.90663147 C77.8130806 34.91126926 74.48905458 34.9202382 71.16497803 34.93133545 C67.76624157 34.94160599 64.36749765 34.94619611 60.96875 34.95117188 C54.31246091 34.96133105 47.65629343 34.98090929 41 35 Z " fill="currentcolor" transform="translate(496,322)"/>
<path d="M0 0 C0.98395752 0.32145996 0.98395752 0.32145996 1.98779297 0.64941406 C23.49006294 7.94605988 41.77671264 22.29093582 52.1875 42.625 C67.34102199 73.66215826 68.7244351 112.44591352 58.18212891 145.14257812 C54.08554028 156.92509081 48.49246043 167.78810461 40 177 C39.22785156 177.85207031 38.45570313 178.70414063 37.66015625 179.58203125 C32.0168934 185.52840775 26.13905319 189.99660829 19 194 C18.08734375 194.52335938 17.1746875 195.04671875 16.234375 195.5859375 C-8.15016973 208.71095201 -37.33476327 210.08414006 -63.71875 202.74609375 C-87.17945129 195.68782301 -105.41617366 181.46948216 -117.11328125 159.76953125 C-122.79395702 148.72907284 -126.10180329 137.23585795 -128 125 C-128.18433594 123.85144531 -128.36867188 122.70289063 -128.55859375 121.51953125 C-132.27434193 90.42674801 -128.78863798 55.18788088 -109.125 29.75 C-107.77008671 28.14944403 -106.39514858 26.56560847 -105 25 C-104.33484375 24.24074219 -103.6696875 23.48148437 -102.984375 22.69921875 C-78.06235056 -4.02272968 -33.81048839 -11.10952282 0 0 Z M-70.7109375 48.23828125 C-83.24034612 63.35482032 -86.40672356 82.19194573 -86.3125 101.3125 C-86.30758545 102.49730957 -86.3026709 103.68211914 -86.29760742 104.90283203 C-86.04988782 123.43733965 -81.70719508 142.1168702 -68.97265625 156.25 C-58.89523005 165.87184635 -45.84676305 170.84265042 -32 171 C-17.14338592 169.94598346 -4.69638435 165.44812422 5.51953125 154.234375 C21.00461209 134.61480326 22.82341465 109.53424148 20.78173828 85.42236328 C18.77665843 69.09629135 11.82958737 52.66833071 -1 42 C-22.49098078 25.82560331 -52.53228858 28.93428739 -70.7109375 48.23828125 Z " fill="currentcolor" transform="translate(412,321)"/>
<path d="M0 0 C64.50078003 0 64.50078003 0 85 20 C99.0465983 35.82183979 103.51274718 53.41348076 103.34057617 74.17529297 C103.33972733 75.63546735 103.34021004 77.09564301 103.34190369 78.55581665 C103.34275505 82.47233391 103.3252707 86.38856853 103.30418181 90.30502081 C103.2852697 94.4155819 103.28365324 98.52615138 103.28010559 102.63674927 C103.27082741 110.39952471 103.24627167 118.16217152 103.21605712 125.92489064 C103.17606827 136.42963436 103.16002403 146.93441392 103.14255047 157.43921471 C103.11444687 173.95957258 103.0546495 190.47965919 103 207 C69.01 207 35.02 207 0 207 C0 138.69 0 70.38 0 0 Z " fill="currentcolor" transform="translate(1035,535)"/>
<path d="M0 0 C13.86 0 27.72 0 42 0 C42 24.75 42 49.5 42 75 C67.41 75 92.82 75 119 75 C119 50.25 119 25.5 119 0 C133.19 0 147.38 0 162 0 C162 66.33 162 132.66 162 201 C147.81 201 133.62 201 119 201 C119 171.3 119 141.6 119 111 C93.59 111 68.18 111 42 111 C42 140.7 42 170.4 42 201 C28.14 201 14.28 201 0 201 C0 134.67 0 68.34 0 0 Z " fill="currentcolor" transform="translate(847,322)"/>
<path d="M0 0 C13.86 0 27.72 0 42 0 C42 25.08 42 50.16 42 76 C67.41 76 92.82 76 119 76 C119 50.92 119 25.84 119 0 C133.19 0 147.38 0 162 0 C162 66.33 162 132.66 162 201 C147.81 201 133.62 201 119 201 C119 171.3 119 141.6 119 111 C93.59 111 68.18 111 42 111 C42 140.7 42 170.4 42 201 C28.14 201 14.28 201 0 201 C0 134.67 0 68.34 0 0 Z " fill="currentcolor" transform="translate(680,102)"/>
<path d="M0 0 C47.85 0 95.7 0 145 0 C145 11.88 145 23.76 145 36 C110.35 36 75.7 36 40 36 C40 49.86 40 63.72 40 78 C70.69 78 101.38 78 133 78 C133 89.88 133 101.76 133 114 C102.31 114 71.62 114 40 114 C40 130.83 40 147.66 40 165 C74.65 165 109.3 165 145 165 C145 176.88 145 188.76 145 201 C97.15 201 49.3 201 0 201 C0 134.67 0 68.34 0 0 Z " fill="currentcolor" transform="translate(864,541)"/>
<path d="M0 0 C47.85 0 95.7 0 145 0 C145 11.88 145 23.76 145 36 C110.35 36 75.7 36 40 36 C40 49.86 40 63.72 40 78 C70.69 78 101.38 78 133 78 C133 89.88 133 101.76 133 114 C102.31 114 71.62 114 40 114 C40 130.83 40 147.66 40 165 C74.65 165 109.3 165 145 165 C145 176.88 145 188.76 145 201 C97.15 201 49.3 201 0 201 C0 134.67 0 68.34 0 0 Z " fill="currentcolor" transform="translate(864,102)"/>
<path d="M0 0 C16.17 0 32.34 0 49 0 C57.81627873 24.8664272 66.62148816 49.73642068 75.375 74.625 C75.9635527 76.29825348 75.9635527 76.29825348 76.56399536 78.00531006 C80.60311271 89.4891377 84.63980208 100.9738168 88.67393494 112.45939636 C90.29818458 117.08331321 91.9230981 121.70699652 93.54824829 126.33059692 C94.34484061 128.59718012 95.1412096 130.86384183 95.93734741 133.13058472 C100.09769634 144.97393506 104.27849174 156.80917064 108.52734375 168.62109375 C108.88343719 169.61221161 109.23953064 170.60332947 109.60641479 171.6244812 C111.2757535 176.2692757 112.95008051 180.91215281 114.63378906 185.55175781 C115.21826075 187.17376983 115.80258027 188.7958367 116.38671875 190.41796875 C116.65443588 191.14954697 116.92215302 191.88112518 117.19798279 192.63487244 C118.24856644 195.56435866 119 197.86149399 119 201 C103.82 201 88.64 201 73 201 C68.07731001 187.8728267 64.18176387 174.38164439 60 161 C35.91 160.67 11.82 160.34 -13 160 C-13.66 162.97 -14.32 165.94 -15 169 C-15.82811455 171.65091466 -16.67948263 174.26253323 -17.6015625 176.87890625 C-17.81578857 177.49890503 -18.03001465 178.11890381 -18.25073242 178.75769043 C-19.03673191 181.02784517 -19.83133909 183.29501238 -20.625 185.5625 C-22.39875 190.656875 -24.1725 195.75125 -26 201 C-40.85 201 -55.7 201 -71 201 C-68.74996511 190.874843 -68.74996511 190.874843 -67.05493164 186.12792969 C-66.48532967 184.52046371 -66.48532967 184.52046371 -65.90422058 182.88052368 C-65.49367935 181.73916962 -65.08313812 180.59781555 -64.66015625 179.421875 C-64.22653275 178.20309662 -63.79290924 176.98431824 -63.34614563 175.72860718 C-62.16963604 172.42232425 -60.9865321 169.11843709 -59.80211639 165.81497955 C-58.55191576 162.3244691 -57.30785799 158.83176986 -56.06298828 155.33935547 C-53.28482215 147.54929349 -50.49747834 139.76253396 -47.70800018 131.97651672 C-46.6128272 128.91913373 -45.51860356 125.86141108 -44.42431641 122.80371094 C-40.92682576 113.0324909 -37.42503233 103.26282708 -33.91749573 93.49520874 C-30.13976413 82.97466292 -26.37285467 72.45031409 -22.6171875 61.921875 C-22.16283474 60.64838552 -21.70847888 59.37489716 -21.25411987 58.10140991 C-19.08782155 52.02918763 -16.92278977 45.95651625 -14.75927734 39.88330078 C-11.20428303 29.91131787 -7.63686449 19.94457449 -3.984375 10.0078125 C-3.69435608 9.21752655 -3.40433716 8.4272406 -3.10552979 7.61300659 C-1.12463406 2.24926812 -1.12463406 2.24926812 0 0 Z M23 48 C20.75429541 54.95529959 18.51088386 61.91133473 16.27014732 68.86823654 C15.22884589 72.10097704 14.18684812 75.33348909 13.14306641 78.56542969 C11.93459823 82.30862713 10.72879919 86.05267622 9.5234375 89.796875 C9.16067719 90.91858093 8.79791687 92.04028687 8.42416382 93.19598389 C5.13560079 103.4261487 2.08997903 113.70006989 -1 124 C15.17 124 31.34 124 48 124 C45.52634279 114.91072235 45.52634279 114.91072235 42.85522461 105.89208984 C42.6629277 105.26786133 42.4706308 104.64363281 42.27250671 104.00048828 C41.65131135 101.98661901 41.02719416 99.9736755 40.40234375 97.9609375 C40.18694002 97.26618946 39.97153629 96.57144142 39.74960518 95.85564041 C38.61490019 92.19682788 37.47774658 88.53878681 36.33862305 84.88134766 C35.16302526 81.10490523 33.99651306 77.32571692 32.83185482 73.5458889 C31.93189212 70.631055 31.02517943 67.7183536 30.11657906 64.80620193 C29.68300201 63.4122947 29.25202405 62.01757629 28.82368279 60.62205124 C28.22810182 58.68379964 27.62200823 56.74878762 27.01538086 54.81396484 C26.67357285 53.71241058 26.33176483 52.61085632 25.979599 51.47592163 C25.25981844 48.8519234 25.25981844 48.8519234 23 48 Z " fill="currentcolor" transform="translate(559,541)"/>
<path d="M0 0 C1.59579319 1.33946105 3.18021381 2.69265215 4.75 4.0625 C5.36488281 4.58199219 5.97976563 5.10148438 6.61328125 5.63671875 C17.39888821 15.48013476 25.78485831 31.56958 27.75 46.0625 C27.75 48.7025 27.75 51.3425 27.75 54.0625 C13.56 54.0625 -0.63 54.0625 -15.25 54.0625 C-16.9 49.4425 -18.55 44.8225 -20.25 40.0625 C-26.27020074 29.35992091 -33.50688583 24.44041387 -45.25 21.0625 C-57.11877278 18.56381099 -69.90043775 19.73928288 -80.5625 25.75 C-94.53973229 34.96998953 -101.37550919 48.6882181 -104.82299805 64.72851562 C-106.25587388 72.44370631 -106.59967136 79.97688448 -106.5625 87.8125 C-106.55758545 89.04170166 -106.5526709 90.27090332 -106.54760742 91.53735352 C-106.32176352 109.0941107 -103.14961947 125.7898525 -92.25 140.0625 C-91.32767578 141.31160156 -91.32767578 141.31160156 -90.38671875 142.5859375 C-83.51779528 150.54735885 -73.55959246 154.56322463 -63.30078125 155.375 C-50.26193681 155.90916056 -39.10426324 153.56445336 -28.625 145.32421875 C-21.95789767 138.97511966 -19.03628896 130.64998545 -16.25 122.0625 C-15.92 121.0725 -15.59 120.0825 -15.25 119.0625 C-1.06 119.0625 13.13 119.0625 27.75 119.0625 C25.693016 137.57535602 18.21161046 154.17379304 5.75 168.0625 C5.23308594 168.67222656 4.71617187 169.28195312 4.18359375 169.91015625 C-3.95500298 178.8646524 -15.89109011 185.28545417 -27.25 189.0625 C-28.98636719 189.6503125 -28.98636719 189.6503125 -30.7578125 190.25 C-54.61336382 197.44564306 -83.25508758 194.70992407 -105.25 183.0625 C-128.38360697 169.3218889 -141.09314439 148.88499272 -147.62670898 123.29541016 C-155.58037015 90.14029791 -152.97646105 51.70970868 -135.25 22.0625 C-122.34370583 1.84283093 -103.37413603 -10.8762861 -80.1640625 -16.39453125 C-52.71646503 -21.50876188 -22.4214029 -17.49139563 0 0 Z " fill="currentcolor" transform="translate(820.25,553.9375)"/>
<path d="M0 0 C46.86 0 93.72 0 142 0 C142 11.88 142 23.76 142 36 C109 36 76 36 42 36 C42 50.85 42 65.7 42 81 C71.04 81 100.08 81 130 81 C130 92.88 130 104.76 130 117 C100.96 117 71.92 117 42 117 C42 144.72 42 172.44 42 201 C28.14 201 14.28 201 0 201 C0 134.67 0 68.34 0 0 Z " fill="currentcolor" transform="translate(371,541)"/>
<path d="M0 0 C54.12 0 108.24 0 164 0 C164 11.88 164 23.76 164 36 C143.87 36 123.74 36 103 36 C103 90.45 103 144.9 103 201 C88.81 201 74.62 201 60 201 C60 146.55 60 92.1 60 36 C40.2 36 20.4 36 0 36 C0 24.12 0 12.24 0 0 Z " fill="currentcolor" transform="translate(506,102)"/>
<path d="M0 0 C53.79 0 107.58 0 163 0 C163 11.88 163 23.76 163 36 C143.2 36 123.4 36 103 36 C103 90.45 103 144.9 103 201 C88.81 201 74.62 201 60 201 C60 146.55 60 92.1 60 36 C40.2 36 20.4 36 0 36 C0 24.12 0 12.24 0 0 Z " fill="currentcolor" transform="translate(669,322)"/>
<path d="M0 0 C6.58945648 3.80367 11.87603557 9.38493502 14.1875 16.73828125 C16.18749419 27.07753694 14.20461096 34.68172086 8.4375 43.25 C2.64790897 48.91093346 -3.53483005 51.62037883 -11.5625 52.25 C-20.13729701 51.68771823 -26.25929727 49.27388125 -32.45703125 43.21875 C-38.16094555 36.62033182 -39.10408486 30.04929828 -38.81640625 21.4375 C-37.76165886 13.22353802 -33.8328928 7.47093515 -27.39453125 2.40625 C-19.22799062 -3.28031601 -9.12573835 -4.12399779 0 0 Z M-30.0703125 11.07421875 C-34.06722724 17.25230697 -35.12523219 22.69339084 -34.375 30 C-32.49951984 36.68961076 -27.94103235 41.08316242 -22.375 45 C-16.74700245 47.75412646 -10.74550231 48.04724506 -4.78515625 46.1953125 C1.78240406 43.33126364 5.50677111 39.43206624 8.625 33 C10.81518142 25.97260809 9.94195155 19.44665584 6.625 13 C3.18033495 7.88221193 -0.48663576 4.75191002 -6.375 3 C-15.76098789 1.49824194 -23.89217065 3.51524797 -30.0703125 11.07421875 Z " fill="currentcolor" transform="translate(322.375,689)"/>
<path d="M0 0 C2.701875 -0.061875 5.40375 -0.12375 8.1875 -0.1875 C9.02949951 -0.21481201 9.87149902 -0.24212402 10.73901367 -0.27026367 C15.32319574 -0.32093869 18.29360873 0.00557089 22 3 C24.32536063 6.48804095 24.33457898 7.90140754 24 12 C23.36345658 13.3479743 22.70394612 14.68596724 22 16 C22.33 16.66 22.66 17.32 23 18 C23.20149426 19.47482605 23.36369902 20.9552268 23.5 22.4375 C23.75623248 25.21487706 24.10887489 27.32662467 25 30 C22.36 30 19.72 30 17 30 C16.34 26.7 15.68 23.4 15 20 C12.36 19.34 9.72 18.68 7 18 C7 21.63 7 25.26 7 29 C4.69 29 2.38 29 0 29 C0 19.43 0 9.86 0 0 Z M7 6 C7 8.31 7 10.62 7 13 C11.0100934 13.17864631 11.0100934 13.17864631 15 13 C15.66 12.34 16.32 11.68 17 11 C16.83333333 8.91666667 16.83333333 8.91666667 16 7 C13.04335481 5.5216774 10.25770263 5.93967217 7 6 Z " fill="currentcolor" transform="translate(299,698)"/>
</svg>