<svg xmlns="http://www.w3.org/2000/svg" version="1.0" preserveAspectRatio="xMidYMid meet" viewBox="13.07 23.4 143.43 143.49">

<g transform="translate(0.000000,184.000000) scale(0.100000,-0.100000)" fill="currentcolor" stroke="none">
<path d="M753 1599 c-83 -12 -192 -50 -261 -91 -32 -18 -96 -72 -144 -119 -72 -72 -93 -101 -132 -180 -85 -177 -106 -324 -65 -469 26 -94 79 -222 90 -218 5 2 107 98 227 215 l219 212 27 -28 c14 -15 26 -31 26 -36 0 -6 -100 -110 -222 -232 l-222 -223 39 -41 c145 -150 342 -227 554 -217 176 9 306 64 454 191 l69 60 -227 227 -228 228 28 36 28 37 51 -48 c28 -26 130 -126 227 -221 l176 -173 26 58 c123 274 87 566 -96 781 -159 188 -410 286 -644 251z m226 -144 c167 -40 316 -160 391 -316 35 -73 42 -100 52 -194 7 -70 8 -124 2 -147 l-9 -37 -198 191 -198 190 -22 -18 c-12 -11 -51 -45 -86 -77 l-64 -59 -76 76 c-42 42 -80 76 -85 76 -5 0 -97 -86 -205 -192 l-196 -192 -3 93 c-5 152 25 260 102 373 73 107 212 203 339 234 72 17 180 17 256 -1z m48 -847 c95 -95 173 -179 173 -186 0 -17 -148 -87 -225 -107 -123 -31 -251 -13 -391 57 -46 23 -84 44 -84 48 0 8 340 360 348 360 4 0 84 -78 179 -172z"/>
<path d="M880 707 c0 -1 14 -38 30 -80 17 -43 30 -80 30 -82 0 -2 -21 -3 -47 -2 -44 2 -48 0 -47 -20 0 -13 1 -63 2 -112 l2 -89 43 5 c88 10 253 72 271 101 3 5 -57 70 -133 145 -119 119 -151 147 -151 134z"/>
</g>
</svg>